<svg id="Layer_1" data-name="Layer 1" xmlns="http://www.w3.org/2000/svg" viewBox="0 0 1536 2319"><defs><style>.cls-1,.cls-2,.cls-5{fill:#45dd53;}.cls-2,.cls-3,.cls-5,.cls-6{stroke:#fff;stroke-miterlimit:10;}.cls-2,.cls-3{stroke-width:37px;}.cls-3,.cls-6{fill:none;}.cls-4{fill:#fff;}.cls-5,.cls-6{stroke-width:27px;}</style></defs><title>mara</title><rect class="cls-1" x="-53.5" y="-78.5" width="1633" height="2434"/><path d="M128.8867-21.1152c80.374,0,95.0537,42.9395,95.0537,66.7944,0,29.36-20.1855,53.2158-52.1143,59.0879v1.4678c25.69,3.67,57.9863,20.5522,57.9863,60.9229,0,64.96-73.4,68.63-106.0645,68.63h-149.37V-21.1152Zm-61.29,101.66H90.7178c33.7646,0,37.0674-17.6162,37.0674-24.9565,0-10.6431-7.707-24.5894-34.8652-24.5894H67.5967Zm0,103.1279H92.5527c31.5625,0,36.7-17.249,36.7-26.4243,0-26.0571-30.4609-26.0571-38.9023-26.0571H67.5967Z"/><path d="M514.2363,229.9155c-29.7275,8.0742-53.2158,10.2759-71.9326,10.2759-99.458,0-153.4082-55.4175-153.4082-132.8555,0-66.0605,41.4717-132.8555,155.9775-132.8555,29.36,0,51.0127,4.771,62.7568,6.9731l5.873,1.1011V50.45a144.3052,144.3052,0,0,0-51.748-9.9092c-41.8389,0-69.3643,27.5254-69.3643,64.5928,0,23.8555,9.542,66.4282,71.1992,66.4282,9.542,0,24.2227-1.4683,50.6465-9.9092Z"/><path d="M817.375-21.1152V39.44H691.4922V76.5078H811.87v58.7207H691.4922v40.0034H819.9443v60.5557H593.1357V-21.1152Z"/><path d="M138.4287,438.8838h98.3574V695.7871H138.4287V601.1H72.7344v94.6875H-25.6221V438.8838H72.7344v88.8154h65.6943Z"/><path d="M525.2422,438.8838,616.626,695.7871H513.1309l-17.6162-55.418h-77.07l-17.249,55.418H302.8379l89.916-256.9033Zm-68.9971,60.9229-26.4238,80.374h54.6836l-26.791-80.374Z"/><path d="M-25.6221,898.8838h145.7l33.3975,140.5625h1.835l31.93-140.5625h145.334v256.9033H244.4932V953.9346H242.291l-50.6465,201.8525H109.8018L60.624,953.9346H58.0547v201.8525H-25.6221Z"/><path d="M621.0293,898.8838l91.3838,256.9033H608.918l-17.6162-55.418h-77.07l-17.249,55.418H398.625l89.916-256.9033Zm-68.9971,60.9229-26.4238,80.374H580.292l-26.791-80.374Z"/><path d="M928.9414,898.8838c77.4375,0,111.2021,45.1416,111.2021,92.1182,0,41.1045-29.36,90.65-109.3672,90.65h-53.95v74.1348H778.47V898.8838Zm-54.6836,123.3135h21.6533c11.7441,0,45.1416-.7334,45.1416-31.9287,0-15.0479-8.0742-31.93-45.5088-31.93H874.2578Z"/><path d="M1286.0352,898.8838l91.3838,256.9033H1273.9238l-17.6162-55.418h-77.07l-17.249,55.418h-98.3574l89.916-256.9033Zm-68.9971,60.9229-26.4238,80.374h54.6836l-26.791-80.374Z"/><path d="M1556.5117,1088.625H1442.74v-63.8584h113.7715Z"/><path d="M90.3506,1529.1914v-41.1045H75.3037c-65.6934,0-111.9365-34.8652-111.9365-99.458,0-56.52,37.8018-99.459,111.5693-99.459H90.3506v-38.5352H188.708V1289.17h15.4141c73.7686,0,111.5693,42.9395,111.5693,99.459,0,64.5928-46.2422,99.458-111.9365,99.458H188.708v41.1045ZM89.25,1347.8906c-20.1855,0-34.1318,16.5156-34.1318,40.7383s14.3135,40.7373,33.7646,40.7373h5.8721v-81.4756Zm95.0537,81.4756h5.8721c19.4512,0,33.7646-16.5156,33.7646-40.7373s-13.9463-40.7383-34.1309-40.7383h-5.5059Z"/><path d="M669.8457,1396.3359c0,81.8418-52.4814,132.8555-143.1318,132.8555S383.582,1478.1777,383.582,1396.3359,436.0635,1263.48,526.7139,1263.48,669.8457,1314.4932,669.8457,1396.3359Zm-182.7686,0c0,26.791,2.5693,71.1982,39.6367,71.1982s39.6367-44.4072,39.6367-71.1982-2.5693-71.1992-39.6367-71.1992S487.0771,1369.5439,487.0771,1396.3359Z"/><path d="M912.7959,1267.8838h98.3574v256.9033H912.7959V1430.1H847.1016v94.6875H748.7451V1267.8838h98.3564v88.8154h65.6943Z"/><circle class="cls-2" cx="1206.8914" cy="1394.5562" r="386.0076" transform="translate(-345.719 399.1796) rotate(-16.4622)"/><path d="M909.8438,1696.4131l-21.8291,20.9209-4.2451-4.4287,18.2441-17.4834-8.2773-8.6387-18.2441,17.4834-4.2441-4.4287,21.83-20.92Z"/><path d="M911.3506,1710.2051a20.7943,20.7943,0,0,1,7.0752,4.4092c6.7334,6.0791,3.8408,10.5078,1.584,13.0088l-9.4658,10.4844-4.2637-3.85,2.1992-2.4375-.0635-.0566c-.99.3857-4.0029,1.2734-7.627-1.9971-4.1982-3.791-3.6689-7.7939-1.3242-10.3906,2.0547-2.2773,6.1357-4.4121,13.1885,1.9561.8018.7236,1.6064,1.5078,2.4082,2.2314l.3848.3467.6367-.7051c1.6494-1.8271.8125-4.4453-1.1758-6.24a13.682,13.682,0,0,0-6.6533-3.3291Zm.8975,15.7656c-2.4033-2.1709-5.9277-5.2939-8.3311-2.6328-1.07,1.1865-1.2012,2.8145.7227,4.5508,1.7949,1.6211,4.7275,2.7549,7.97-.8359l.376-.416Z"/><path d="M913.1064,1752.3672l19.5391-24.8555,4.041,3.1768-2.4023,3.0557.0674.0537a8.3034,8.3034,0,0,1,8.3545,1.1836c4.0059,3.1494,5.3994,8.3662.2754,14.8848-5.0977,6.4854-10.8965,6.1035-14.7334,3.0869a7.2286,7.2286,0,0,1-2.9766-6.625l-.0684-.0537-2.167,2.9658-5.3115,6.7578Zm16.9043-3.9619c1.8672,1.4678,5.2129,1.4063,8.1494-2.3291s2.2051-7.001.3379-8.4687-5.2119-1.4053-8.1484,2.33S928.1426,1746.9375,930.0107,1748.4053Z"/><path d="M961.2207,1749.0293l-5.7236,8.3818.1777.1221,11.6445-4.3389,5.4219,3.7021-12.8154,4.0625,1.1611,15.0723-6.0986-4.166-.166-13.084-.18-.1221-6.04,8.8467-4.8506-3.3125,12.6172-18.4766Z"/><path d="M975.8926,1795.8486l15.1641-27.7441,4.51,2.4658-1.8643,3.41.0771.042a8.2988,8.2988,0,0,1,8.4346-.2139c4.4736,2.4453,6.71,7.3584,2.7314,14.6357-3.9561,7.2393-9.7363,7.82-14.0205,5.4795a7.2274,7.2274,0,0,1-4.0312-6.043l-.0762-.041-1.6455,3.2832-4.124,7.543Zm16.0186-6.7021c2.0859,1.14,5.374.5254,7.6533-3.6436,2.2773-4.1689,1.0176-7.27-1.0654-8.4082-2.085-1.14-5.373-.5254-7.6533,3.6436C988.5684,1784.9072,989.8271,1788.0078,991.9111,1789.1465Z"/><path d="M1018.3564,1783.8047a20.8119,20.8119,0,0,1,8.0684,2.0986c8.2393,3.7949,6.7988,8.8857,5.39,11.9463l-5.9092,12.83-5.2178-2.4033,1.373-2.9814-.0791-.0371c-.8291.665-3.44,2.4111-7.874.3691-5.14-2.3672-5.8291-6.3457-4.3652-9.5244,1.2832-2.7861,4.543-6.041,13.1738-2.0654.98.4521,1.9834.9609,2.9639,1.4131l.4717.2168.3975-.8633c1.03-2.2363-.55-4.4863-2.9824-5.6064a13.6629,13.6629,0,0,0-7.3437-1.1943Zm5.5566,14.7813c-2.9434-1.3555-7.2373-3.2852-8.7373-.0293-.6689,1.4521-.3086,3.0449,2.0459,4.1289,2.1973,1.0117,5.335,1.2207,7.3594-3.1738l.2344-.51Z"/><path d="M1043.9,1803.2021l2.8213,1.0889c2.5781.9961,3.5586-.1064,3.8867-.9521.4668-1.208-.1211-2.6855-2.6592-3.667a16.145,16.145,0,0,0-6.5312-.9492l1.459-4.0186a20.405,20.405,0,0,1,7.5244,1.3779c6.4873,2.5059,7.0273,6.1416,6.0625,8.6406a4.8748,4.8748,0,0,1-5.3906,3.2871l-.0322.08c1.6641.9668,4.1035,3.16,2.7656,6.625-1.417,3.666-5.916,5.123-11.9189,2.8047a21.6716,21.6716,0,0,1-7.2021-4.7275l2.0088-3.7617a19.3237,19.3237,0,0,0,6.5186,4.4629c2.2559.8711,4.2959.502,4.9971-1.3105.5605-1.45-.0674-2.9434-2.9277-4.0479l-2.86-1.1055Z"/><path d="M1077.69,1806.0107c6.1357,1.9443,6.3906,5.2891,5.6719,7.5527a4.905,4.905,0,0,1-5.4668,3.5244l-.0391.123a5.1832,5.1832,0,0,1,3.2432,6.7832c-1.2139,3.8291-5.0234,4.9785-9.8408,3.4512l-10.7881-3.4189,6.7607-21.33Zm-10.4453,16.085,3.583,1.1348c1.0293.3262,3.6924,1.2158,4.5938-1.625.835-2.6348-1.542-3.57-2.86-3.9883l-3.542-1.123Zm2.95-9.3066,3.459,1.0957c1.1113.3525,3.1836.9648,3.9014-1.3008.6924-2.1816-1.3691-2.9707-2.44-3.3105l-3.459-1.0957Z"/><path d="M1113.1621,1815.5781l-5.3369,21.7344-5.7061-1.4014,4.3066-17.5381-6.7129-1.6484-1.1855,4.8262c-2.6475,10.7822-4.21,12.8008-9.959,11.39a6.91,6.91,0,0,1-2.3516-.9346l1.3242-4.3008a2.9147,2.9147,0,0,0,.9648.415c3.2725.8037,3.8008-3.1592,4.9453-7.8174l2.2148-9.0205Z"/><path d="M1124.752,1831.0879c-.3281,2.8379,1.248,5.8369,5.5879,6.6055a16.7858,16.7858,0,0,0,7.1621-.3115l-.7676,4.34a22.5419,22.5419,0,0,1-7.8564.0127c-6.5947-1.167-11.2373-5.6748-9.8594-13.4609,1.2588-7.1045,6.9893-10.4775,12.9033-9.4307,9.998,1.7705,8.4287,11.6279,8.0811,13.585l-.2324,1.3193Zm9.7627-2.3516c.7393-3.6875-1.5137-5.5781-3.6416-5.9541-2.5518-.4521-4.8652,1.4639-5.42,4.3486Z"/><path d="M1154.92,1822.6465l-.79,7.084c-.1777,1.5889.0693,3.2686,3.2041,3.6182a19.1461,19.1461,0,0,0,4.57-.0557l1.0879-9.7461,5.8379.6514-2.48,22.24-5.8389-.6514.915-8.2012a31.973,31.973,0,0,1-5.6016-.0586c-7.4268-.8291-7.9785-4.4551-7.6152-7.7187l.8721-7.8135Z"/><path d="M1182.3311,1838.1006c.04,2.8555,1.9873,5.626,6.39,5.83a16.8033,16.8033,0,0,0,7.0605-1.2295l-.2041,4.4a22.5414,22.5414,0,0,1-7.7871,1.0225c-6.6865-.3086-11.8691-4.1807-11.5029-12.0762.332-7.2051,5.58-11.2861,11.5781-11.0088,10.1387.4688,9.8486,10.4434,9.7578,12.4277l-.0625,1.3379Zm9.376-3.5869c.26-3.75-2.2178-5.335-4.376-5.4346-2.5879-.12-4.6357,2.0771-4.8145,5.0088Z"/><path d="M1212.02,1825.834l.1807,8.4639,9.4141-.2021-.1816-8.4629,5.8721-.126.48,22.3682-5.8721.126-.2061-9.5869-9.4141.2021.207,9.5869-5.873.126-.48-22.3682Z"/><path d="M1242.4766,1824.4326l1.0947,11.6992.2031,4.0166.0859-.0078,8.1221-16.5986,6.5371-.6123,2.0859,22.2813-5.8486.5469-1.0791-11.5264-.2187-4.1885-.13.0117-8.38,16.623-6.2373.584-2.0859-22.2812Z"/><path d="M1273.5537,1820.749l1.9492,11.585.4951,3.99.085-.0146,6.8838-17.1436,6.4746-1.0879,3.71,22.0625-5.793.9736-1.9189-11.4141-.5244-4.16-.1279.0205-7.1387,17.1865-6.1768,1.0391-3.71-22.0635Zm10.9141-10.1123A8.1168,8.1168,0,0,1,1270.4111,1813l1.8008-2.3174a7.0911,7.0911,0,0,0,9.7969-1.6475Z"/><path d="M1311.4727,1804.9785l5.001-1.3613,1.7949,10.7041-5.9189,1.6113Zm10.0029-2.7227,5.002-1.36,1.7939,10.7031-5.918,1.6113Z"/><path d="M1344.2393,1795.1279c5.5547-1.9121,10.29-1.03,11.9492,3.79,1.4766,4.2891-.5605,6.8643-2.3926,8.18l.0283.082a7.0622,7.0622,0,0,1,8.3525,4.7539c1.2246,3.5547.6875,8.7656-8.4619,11.916l-9.0273,3.1074-9.8437-28.5947Zm.3984,12.8389,2.8193-.9707c3.7568-1.293,3.6641-3.82,3.2275-5.0869-.2812-.8164-1.4268-3.4834-5.9209-1.9365l-2.5732.8867Zm4.3037,12.5,3.2266-1.1113c3.6367-1.252,4.4316-3.7187,3.7285-5.7607s-2.4814-3.624-6.4854-2.2451l-3.2266,1.11Z"/><path d="M1371.083,1793.4844l3.1777,7.2852,4.1582-1.8145c7.5215-3.2832,10.4971.5088,11.5166,2.8447,1.5723,3.6025.3125,7.7344-5.3506,10.2051l-9.9365,4.3379-8.9512-20.5088Zm7.3945,16.9453,3.3652-1.4687c2.5342-1.1064,3.1611-3.124,2.47-4.708-.5176-1.1875-2.1221-2.7031-5.1309-1.39l-3.3652,1.4688Zm13.9434-26.26,8.9521,20.51-5.3848,2.35-8.9512-20.5088Z"/><path d="M1406.0576,1777.2266l8.72,15.8135,6.3174-3.4834-8.72-15.8145,5.1445-2.8369,8.7207,15.8135,6.3184-3.4844-8.7207-15.8135,5.1455-2.8379,10.8066,19.5977-28.0713,15.4795-10.8057-19.5967Z"/><path d="M1448.0449,1767.6465c1.7148,2.2832,4.9219,3.374,8.5977.9443a16.7788,16.7788,0,0,0,4.98-5.1562l2.43,3.6758a22.531,22.531,0,0,1-5.6875,5.417c-5.5859,3.6924-12.0547,3.6191-16.416-2.9746-3.9775-6.0186-2.1436-12.4092,2.8662-15.7207,8.4678-5.5977,14.1143,2.6309,15.2119,4.2891l.7373,1.1162Zm5.46-8.4258c-2.002-3.1816-4.9365-3.002-6.7383-1.8105-2.1631,1.4287-2.5215,4.4111-.9375,6.8857Z"/><path d="M1461.6855,1732.6982l4.1445,10.4111-4.1318,3.13-4.9023-9.8369Zm8.2656-6.26,4.1455,10.41-4.1328,3.13-4.9033-9.8359Z"/><line class="cls-3" x1="1462.7707" y1="1116.2545" x2="1258.0071" y2="1353.1156"/><line class="cls-3" x1="1169.3776" y1="1459.9228" x2="972.3377" y2="1679.61"/><line class="cls-3" x1="839.0929" y1="1298.2356" x2="1139.8675" y2="1385.2179"/><line class="cls-3" x1="1271.4908" y1="1420.4075" x2="1558.5917" y2="1501.9987"/><line class="cls-3" x1="1094.542" y1="1025.2473" x2="1189.0532" y2="1345.0863"/><line class="cls-3" x1="1225.8075" y1="1469.4681" x2="1313.3179" y2="1765.6152"/><path class="cls-1" d="M287.8906,2336.6a367.5206,367.5206,0,1,1,285.5166-598.62A367.37,367.37,0,0,1,287.8906,2336.6Z"/><path class="cls-4" d="M287.4471,1620.0585a352.48,352.48,0,0,1,148.1185,32.8038A349.0006,349.0006,0,0,1,287.8906,2318.1a352.56,352.56,0,0,1-148.136-32.8005A349.0014,349.0014,0,0,1,287.441,1620.0585h.0061m-.0282-37a384.4727,384.4727,0,0,0-242.4978,85.8835C-120.84,1803-146.54,2046.0513-12.4824,2211.8125,63.8007,2306.1357,175.3469,2355.1,287.8906,2355.1a384.4357,384.4357,0,0,0,242.4976-85.8833c165.7612-134.0581,191.4617-377.1094,57.4038-542.8708-76.2832-94.3231-187.8293-143.2952-300.373-143.2869Z"/><path class="cls-4" d="M282.8065,1924.6729a48.141,48.141,0,1,1-.0042,0h.0042m-.0061-37a85.29,85.29,0,1,0,66.3663,31.6588A84.9477,84.9477,0,0,0,282.8,1887.673Z"/><path class="cls-4" d="M1206.8064,1356.6729a48.1408,48.1408,0,1,1-.0041,0h.0041m-.0061-37a85.29,85.29,0,1,0,66.3665,31.6588A84.9471,84.9471,0,0,0,1206.8,1319.673Z"/><line class="cls-3" x1="533.9587" y1="1700.3528" x2="329.1951" y2="1937.2139"/><line class="cls-3" x1="250.1409" y1="2034.4457" x2="43.5256" y2="2263.7083"/><line class="cls-3" x1="-80.1438" y1="1872.7585" x2="220.6308" y2="1959.7409"/><line class="cls-3" x1="342.6787" y1="1994.9305" x2="629.7797" y2="2076.5217"/><line class="cls-3" x1="165.7299" y1="1609.3457" x2="260.2411" y2="1929.1846"/><line class="cls-3" x1="296.9955" y1="2024.8402" x2="384.5058" y2="2320.9874"/><line class="cls-3" x1="620.8375" y1="1808.1214" x2="914.7427" y2="1621.6877"/><polyline class="cls-3" points="961.146 1093.606 654.282 1457.805 478.645 1642.834"/><line class="cls-3" x1="436.2777" y1="1293.8389" x2="573.7281" y2="1558.1666"/><line class="cls-3" x1="901.4943" y1="796.903" x2="1038.9447" y2="1061.2306"/><line class="cls-3" x1="627.6602" y1="765.2662" x2="1198.6079" y2="849.851"/><path class="cls-2" d="M574.7947,1209.3366c0,81.4284-264.3276,158.5966-317.1932,74.0117S574.7947,1167.0442,574.7947,1209.3366Z"/><path d="M473.624,2228.1309l56.7588-37.624h46.2246v150.4971H522.4287v-97.6084l-33.3252,24.08Z"/><path d="M627.3477,2299.51h46.8691v41.4941H627.3477Z"/><path d="M828.585,2226.626l-4.085-.86c-8.3848-1.72-19.7793-4.3-33.5391-4.3-6.665,0-35.0449,1.0752-35.4746,30.1h.8594c5.375-4.3,13.9756-9.03,31.1748-9.03,31.8193,0,54.8242,19.1348,54.8242,47.9443,0,30.1-24.51,53.1045-66.6494,53.1045-43.8584,0-73.958-29.2393-73.958-76.5391,0-41.709,24.2939-79.1182,83.2031-79.1182,6.45,0,20.64.2148,43.6445,4.085Zm-72.4541,64.499c0,13.1143,8.17,20.209,18.2754,20.209s18.2744-7.0947,18.2744-20.209-8.17-20.21-18.2744-20.21S756.1309,2278.01,756.1309,2291.125Z"/><path d="M869.8643,2299.51h46.8691v41.4941H869.8643Z"/><path d="M1074.1113,2304.8848v36.1191H955.0039v-42.3545l17.6289-9.2451c23.22-12.0391,47.085-24.5088,47.085-42.999,0-10.9648-7.9551-21.0693-29.0254-21.0693a88.289,88.289,0,0,0-32.6787,6.665v-39.3447a197.7816,197.7816,0,0,1,43.4287-4.7295c61.06,0,72.6689,26.874,72.6689,49.4492,0,24.9395-19.9941,48.5889-61.7041,67.0781v.4307Z"/><path d="M1250.624,2265.97c0,45.3643-26.6592,77.6143-74.8184,77.6143s-74.8193-32.25-74.8193-77.6143c0-49.8789,31.82-78.043,74.8193-78.043S1250.624,2216.0908,1250.624,2265.97Zm-56.3291-.2148c0-24.7246.4307-44.2891-18.4893-44.2891s-18.49,19.5645-18.49,44.2891c0,23.6494-.43,44.29,18.49,44.29S1194.2949,2289.4043,1194.2949,2265.7549Z"/><path d="M1281.1543,2228.1309l56.7588-37.624h46.2246v150.4971H1329.959v-97.6084l-33.3252,24.08Z"/><path d="M1538.7207,2265.11c14.1895,3.01,30.7451,12.6846,30.7451,33.97,0,17.1992-11.3955,44.5039-71.1641,44.5039s-71.1641-27.3047-71.1641-44.5039c0-21.2852,16.5547-30.96,30.7441-33.97v-.86c-17.1992-4.3-27.0889-18.92-27.0889-34.8291,0-9.6748,5.375-41.4941,67.5088-41.4941s67.5088,31.8193,67.5088,41.4941c0,15.9092-9.89,30.5293-27.09,34.8291Zm-57.4043,27.52c0,11.18,6.665,19.35,16.9854,19.35s16.9844-8.17,16.9844-19.35-6.665-19.35-16.9844-19.35S1481.3164,2281.45,1481.3164,2292.63Zm1.5059-58.6943c0,11.61,7.9541,17.2,15.4795,17.2s15.4795-5.59,15.4795-17.2-7.9551-17.1992-15.4795-17.1992S1482.8223,2222.3262,1482.8223,2233.9355Z"/><circle class="cls-5" cx="915.3724" cy="327.9613" r="195.3213" transform="translate(341.4545 1112.8711) rotate(-73.5378)"/><line class="cls-6" x1="785.8965" y1="187.1395" x2="889.5077" y2="306.9922"/><line class="cls-6" x1="934.3546" y1="361.037" x2="1034.0576" y2="472.1996"/><line class="cls-6" x1="1101.48" y1="279.2227" x2="949.2868" y2="323.2361"/><line class="cls-6" x1="882.6849" y1="341.0421" x2="737.4107" y2="382.3276"/><line class="cls-6" x1="972.2217" y1="141.0896" x2="924.3987" y2="302.9293"/><line class="cls-6" x1="905.8008" y1="365.867" x2="861.5202" y2="515.7186"/><path class="cls-1" d="M1380.3916,800.5a182.0428,182.0428,0,1,1,.0127,0Z"/><path class="cls-4" d="M1380.6292,450.3442a168.3309,168.3309,0,1,1-130.9963,62.4823,167.6408,167.6408,0,0,1,130.9963-62.4823m0-27a194.9329,194.9329,0,0,0-151.99,72.5038c-67.8337,83.8759-54.8293,206.8607,29.0466,274.6946A195.3051,195.3051,0,0,0,1532.38,741.4962c67.834-83.8759,54.8293-206.8608-29.0464-274.6947a194.5264,194.5264,0,0,0-122.7048-43.4573Z"/><path class="cls-4" d="M1382.9661,604.48a16.1581,16.1581,0,1,1-12.5876,5.9979,15.96,15.96,0,0,1,12.5876-5.9979m0-27a43.1571,43.1571,0,1,0,27.1113,9.6017,43.0692,43.0692,0,0,0-27.1113-9.6017Z"/><path class="cls-4" d="M915.4185,317.07a16.1577,16.1577,0,1,1-12.5879,5.9979,15.96,15.96,0,0,1,12.5879-5.9979m0-27a43.1571,43.1571,0,1,0,27.1113,9.6018,43.0694,43.0694,0,0,0-27.1113-9.6018Z"/><line class="cls-6" x1="1255.879" y1="482.6956" x2="1359.4902" y2="602.5482"/><line class="cls-6" x1="1399.4919" y1="651.7479" x2="1504.0401" y2="767.7556"/><line class="cls-6" x1="1566.6173" y1="569.9335" x2="1414.4242" y2="613.9469"/><line class="cls-6" x1="1352.6674" y1="631.753" x2="1207.3932" y2="673.0385"/><line class="cls-6" x1="1442.2042" y1="436.6456" x2="1394.3812" y2="598.4853"/><line class="cls-6" x1="1375.7834" y1="646.8875" x2="1331.5028" y2="796.7391"/><line class="cls-6" x1="1211.918" y1="537.2269" x2="1063.2008" y2="442.8907"/><polyline class="cls-6" points="1039.721 175.679 1194.995 359.965 1283.868 453.591"/><line class="cls-6" x1="1305.306" y1="276.9979" x2="1235.7556" y2="410.7488"/><line class="cls-6" x1="1069.9046" y1="25.5464" x2="1000.3541" y2="159.2972"/><line class="cls-6" x1="1208.4657" y1="9.5381" x2="919.5639" y2="52.3383"/><path class="cls-5" d="M1235.2158,234.2394c0,41.2031,133.7508,80.25,160.501,37.45S1235.2158,212.8393,1235.2158,234.2394Z"/></svg>