<svg id="Layer_2" data-name="Layer 2" xmlns="http://www.w3.org/2000/svg" viewBox="0 0 1180 2098.8267"><defs><style>.cls-1{fill:#00bfff;}.cls-2{opacity:0.21;}.cls-3{fill:none;}.cls-3,.cls-4{stroke:#000;stroke-miterlimit:10;}.cls-4{fill:#ed3df2;}.cls-5{fill:#661066;}</style></defs><title>parachuteSmall</title><rect class="cls-1" x="-82" y="-124.1733" width="1333" height="2283"/><g class="cls-2"><path class="cls-3" d="M837.2581,69.8855l89.8656,55.9135L858.7891,61.0956s11.224-18.4867,24.7589-5.612l44.5661,69.325-35.983-92.7634,27.07,3.3012,8.9132,91.4429L959.4754,26.0844"/><path d="M838.3217,63.7366s8.253-5.9421,22.118,1.6506c0,0,8.253-18.8168,22.118-6.6024,0,0,14.5252-20.1373,23.1083-22.118s13.865,0,13.865,0,11.8843-15.1855,39.9444-8.5831c0,0-14.5252-20.7975-41.2649-14.5252S849.5458,33.0355,838.3217,63.7366Z"/><path class="cls-4" d="M836.5061,71.4944S819.2574,16.2719,871.8288-5.7534c53.9744-22.6131,88.3068,32.8468,88.3068,32.8468s-19.1469-12.2144-34.6625-7.2626-30.7011,23.4384-30.7011,23.4384-12.8746-10.8939-31.0312-1.9807S836.5061,71.4944,836.5061,71.4944Z"/><path class="cls-5" d="M857.4176,2.2254s20.3244,3.6129,33.8737-13.0769a62.86,62.86,0,0,0-18.326,4.633A94.783,94.783,0,0,0,857.4176,2.2254Z"/><path class="cls-3" d="M855.0737,4.0042s-11.0058,15.337-8.5969,51.5647"/><path class="cls-3" d="M862.4212,2.5543s-2.6083,28.6583,5.4629,36.9975"/><path class="cls-3" d="M875.5064.3176s9.0755,33.0422,20.1127,41.9583"/><path class="cls-3" d="M885.5628-5.196s24.1436,10.8042,29.5511,30.13"/><path class="cls-3" d="M889.5321-8.8387s34.3795,14.1979,37.6361,28.2011"/><path class="cls-3" d="M901.0443-11.1733s42.372,14.5627,44.2943,31.6966"/><path class="cls-3" d="M751.4222,119.8875,661.5566,175.801l68.3346-64.7033s-11.224-18.4867-24.7589-5.612l-44.5661,69.325,35.983-92.7634-27.07,3.3012-8.9132,91.4429L629.205,76.0864"/><path d="M750.3586,113.7387s-8.253-5.9421-22.118,1.6506c0,0-8.253-18.8168-22.118-6.6024,0,0-14.5252-20.1373-23.1083-22.118s-13.865,0-13.865,0-11.8843-15.1855-39.9444-8.5831c0,0,14.5252-20.7975,41.2649-14.5252S739.1346,83.0376,750.3586,113.7387Z"/><path class="cls-4" d="M752.1743,121.4965s17.2487-55.2225-35.3227-77.2478c-53.9744-22.6131-88.3068,32.8468-88.3068,32.8468s19.1469-12.2144,34.6625-7.2626,30.7011,23.4384,30.7011,23.4384,12.8746-10.8939,31.0312-1.9807S752.1743,121.4965,752.1743,121.4965Z"/><path class="cls-5" d="M731.2627,52.2275S710.9384,55.84,697.389,39.1506a62.86,62.86,0,0,1,18.326,4.633A94.783,94.783,0,0,1,731.2627,52.2275Z"/><path class="cls-3" d="M733.6067,54.0063s11.0058,15.337,8.5969,51.5647"/><path class="cls-3" d="M726.2592,52.5564s2.6083,28.6583-5.4629,36.9975"/><path class="cls-3" d="M713.1739,50.32s-9.0755,33.0422-20.1127,41.9583"/><path class="cls-3" d="M703.1176,44.806S678.974,55.61,673.5665,74.936"/><path class="cls-3" d="M699.1482,41.1634s-34.3795,14.1979-37.6361,28.2011"/><path class="cls-3" d="M687.636,38.8287s-42.372,14.5627-44.2943,31.6966"/><path class="cls-3" d="M431.2581,69.8855l89.8656,55.9135L452.7891,61.0956s11.224-18.4867,24.7589-5.612l44.5661,69.325-35.983-92.7634,27.07,3.3012,8.9132,91.4429L553.4754,26.0844"/><path d="M432.3217,63.7366s8.253-5.9421,22.118,1.6506c0,0,8.253-18.8168,22.118-6.6024,0,0,14.5252-20.1373,23.1083-22.118s13.865,0,13.865,0,11.8843-15.1855,39.9444-8.5831c0,0-14.5252-20.7975-41.2649-14.5252S443.5458,33.0355,432.3217,63.7366Z"/><path class="cls-4" d="M430.5061,71.4944S413.2574,16.2719,465.8288-5.7534c53.9744-22.6131,88.3068,32.8468,88.3068,32.8468s-19.1469-12.2144-34.6625-7.2626-30.7011,23.4384-30.7011,23.4384-12.8746-10.8939-31.0312-1.9807S430.5061,71.4944,430.5061,71.4944Z"/><path class="cls-5" d="M451.4176,2.2254s20.3244,3.6129,33.8737-13.0769a62.86,62.86,0,0,0-18.326,4.633A94.783,94.783,0,0,0,451.4176,2.2254Z"/><path class="cls-3" d="M449.0737,4.0042s-11.0058,15.337-8.5969,51.5647"/><path class="cls-3" d="M456.4212,2.5543s-2.6083,28.6583,5.4629,36.9975"/><path class="cls-3" d="M469.5064.3176s9.0755,33.0422,20.1127,41.9583"/><path class="cls-3" d="M479.5628-5.196s24.1436,10.8042,29.5511,30.13"/><path class="cls-3" d="M483.5321-8.8387s34.3795,14.1979,37.6361,28.2011"/><path class="cls-3" d="M495.0443-11.1733s42.372,14.5627,44.2943,31.6966"/><path class="cls-3" d="M345.4222,120.8875,255.5566,176.801l68.3346-64.7033s-11.224-18.4867-24.7589-5.612l-44.5661,69.325,35.983-92.7634-27.07,3.3012-8.9132,91.4429L223.205,77.0864"/><path d="M344.3586,114.7387s-8.253-5.9421-22.118,1.6506c0,0-8.253-18.8168-22.118-6.6024,0,0-14.5252-20.1373-23.1083-22.118s-13.865,0-13.865,0-11.8843-15.1855-39.9444-8.5831c0,0,14.5252-20.7975,41.2649-14.5252S333.1346,84.0376,344.3586,114.7387Z"/><path class="cls-4" d="M346.1743,122.4965s17.2487-55.2225-35.3227-77.2478c-53.9744-22.6131-88.3068,32.8468-88.3068,32.8468s19.1469-12.2144,34.6625-7.2626,30.7011,23.4384,30.7011,23.4384,12.8746-10.8939,31.0312-1.9807S346.1743,122.4965,346.1743,122.4965Z"/><path class="cls-5" d="M325.2627,53.2275S304.9384,56.84,291.389,40.1506a62.86,62.86,0,0,1,18.326,4.633A94.783,94.783,0,0,1,325.2627,53.2275Z"/><path class="cls-3" d="M327.6067,55.0063s11.0058,15.337,8.5969,51.5647"/><path class="cls-3" d="M320.2592,53.5564s2.6083,28.6583-5.4629,36.9975"/><path class="cls-3" d="M307.1739,51.32s-9.0755,33.0422-20.1127,41.9583"/><path class="cls-3" d="M297.1176,45.806S272.974,56.61,267.5665,75.936"/><path class="cls-3" d="M293.1482,42.1634s-34.3795,14.1979-37.6361,28.2011"/><path class="cls-3" d="M281.636,39.8287s-42.372,14.5627-44.2943,31.6966"/><path class="cls-3" d="M25.2575,68.8855l89.8656,55.9135L46.7885,60.0956s11.224-18.4867,24.7589-5.612l44.5661,69.325L80.1305,31.0452l27.07,3.3012,8.9132,91.4429L147.4748,25.0844"/><path d="M26.3211,62.7366s8.253-5.9421,22.118,1.6506c0,0,8.253-18.8168,22.118-6.6024,0,0,14.5252-20.1373,23.1083-22.118s13.865,0,13.865,0,11.8843-15.1855,39.9444-8.5831c0,0-14.5252-20.7975-41.2649-14.5252S37.5452,32.0355,26.3211,62.7366Z"/><path class="cls-4" d="M24.5055,70.4944S7.2568,15.2719,59.8282-6.7534c53.9744-22.6131,88.3068,32.8468,88.3068,32.8468s-19.1469-12.2144-34.6625-7.2626S82.7715,42.2692,82.7715,42.2692,69.8968,31.3753,51.74,40.2885,24.5055,70.4944,24.5055,70.4944Z"/><path class="cls-5" d="M45.417,1.2254S65.7414,4.8383,79.2907-11.8515a62.86,62.86,0,0,0-18.326,4.633A94.783,94.783,0,0,0,45.417,1.2254Z"/><path class="cls-3" d="M43.0731,3.0042S32.0673,18.3413,34.4761,54.569"/><path class="cls-3" d="M50.4206,1.5543s-2.6083,28.6583,5.4629,36.9975"/><path class="cls-3" d="M63.5058-.6824S72.5813,32.36,83.6185,41.2759"/><path class="cls-3" d="M73.5622-6.196s24.1436,10.8042,29.5511,30.13"/><path class="cls-3" d="M77.5315-9.8387S111.911,4.3593,115.1676,18.3625"/><path class="cls-3" d="M89.0437-12.1733s42.372,14.5627,44.2943,31.6966"/><path class="cls-3" d="M1041.2578,68.8851l89.8656,55.9135-68.3346-64.7033s11.224-18.4867,24.7589-5.612l44.5661,69.325-35.983-92.7634,27.07,3.3012,8.9132,91.4429L1163.4751,25.084"/><path d="M1042.3214,62.7362s8.253-5.9421,22.118,1.6506c0,0,8.253-18.8168,22.118-6.6024,0,0,14.5252-20.1373,23.1083-22.118s13.865,0,13.865,0,11.8843-15.1855,39.9444-8.5831c0,0-14.5252-20.7975-41.2649-14.5252S1053.5455,32.0352,1042.3214,62.7362Z"/><path class="cls-4" d="M1040.5058,70.494s-17.2487-55.2225,35.3227-77.2478c53.9744-22.6131,88.3068,32.8468,88.3068,32.8468s-19.1469-12.2144-34.6625-7.2626-30.7011,23.4384-30.7011,23.4384-12.8746-10.8939-31.0312-1.9807S1040.5058,70.494,1040.5058,70.494Z"/><path class="cls-5" d="M1061.4173,1.2251s20.3244,3.6129,33.8737-13.0769a62.86,62.86,0,0,0-18.326,4.633A94.783,94.783,0,0,0,1061.4173,1.2251Z"/><path class="cls-3" d="M1059.0734,3.0039s-11.0058,15.337-8.5969,51.5647"/><path class="cls-3" d="M1066.4209,1.5539s-2.6083,28.6583,5.4629,36.9975"/><path class="cls-3" d="M1079.5061-.6827s9.0755,33.0422,20.1127,41.9583"/><path class="cls-3" d="M1089.5625-6.1964s24.1436,10.8042,29.5511,30.13"/><path class="cls-3" d="M1093.5318-9.839s34.3795,14.1979,37.6361,28.2011"/><path class="cls-3" d="M1105.044-12.1737s42.372,14.5627,44.2943,31.6966"/></g><g class="cls-2"><path class="cls-3" d="M837.2581,295.8855l89.8656,55.9135-68.3346-64.7033s11.224-18.4867,24.7589-5.612l44.5661,69.325-35.983-92.7634,27.07,3.3012,8.9132,91.4429,31.3613-100.7049"/><path d="M838.3217,289.7366s8.253-5.9421,22.118,1.6506c0,0,8.253-18.8168,22.118-6.6024,0,0,14.5252-20.1373,23.1083-22.118s13.865,0,13.865,0,11.8843-15.1855,39.9444-8.5831c0,0-14.5252-20.7975-41.2649-14.5252S849.5458,259.0355,838.3217,289.7366Z"/><path class="cls-4" d="M836.5061,297.4944s-17.2487-55.2225,35.3227-77.2478c53.9744-22.6131,88.3068,32.8468,88.3068,32.8468s-19.1469-12.2144-34.6625-7.2626-30.7011,23.4384-30.7011,23.4384-12.8746-10.8939-31.0312-1.9807S836.5061,297.4944,836.5061,297.4944Z"/><path class="cls-5" d="M857.4176,228.2254s20.3244,3.6129,33.8737-13.0769a62.86,62.86,0,0,0-18.326,4.633A94.783,94.783,0,0,0,857.4176,228.2254Z"/><path class="cls-3" d="M855.0737,230.0042s-11.0058,15.337-8.5969,51.5647"/><path class="cls-3" d="M862.4212,228.5543s-2.6083,28.6583,5.4629,36.9975"/><path class="cls-3" d="M875.5064,226.3176s9.0755,33.0422,20.1127,41.9583"/><path class="cls-3" d="M885.5628,220.804s24.1436,10.8042,29.5511,30.13"/><path class="cls-3" d="M889.5321,217.1613s34.3795,14.1979,37.6361,28.2011"/><path class="cls-3" d="M901.0443,214.8267s42.372,14.5627,44.2943,31.6966"/><path class="cls-3" d="M751.4222,345.8875,661.5566,401.801l68.3346-64.7033s-11.224-18.4867-24.7589-5.612l-44.5661,69.325,35.983-92.7634-27.07,3.3012-8.9132,91.4429L629.205,302.0864"/><path d="M750.3586,339.7387s-8.253-5.9421-22.118,1.6506c0,0-8.253-18.8168-22.118-6.6024,0,0-14.5252-20.1373-23.1083-22.118s-13.865,0-13.865,0-11.8843-15.1855-39.9444-8.5831c0,0,14.5252-20.7975,41.2649-14.5252S739.1346,309.0376,750.3586,339.7387Z"/><path class="cls-4" d="M752.1743,347.4965s17.2487-55.2225-35.3227-77.2478c-53.9744-22.6131-88.3068,32.8468-88.3068,32.8468s19.1469-12.2144,34.6625-7.2626,30.7011,23.4384,30.7011,23.4384,12.8746-10.8939,31.0312-1.9807S752.1743,347.4965,752.1743,347.4965Z"/><path class="cls-5" d="M731.2627,278.2275s-20.3244,3.6129-33.8737-13.0769a62.86,62.86,0,0,1,18.326,4.633A94.783,94.783,0,0,1,731.2627,278.2275Z"/><path class="cls-3" d="M733.6067,280.0063s11.0058,15.337,8.5969,51.5647"/><path class="cls-3" d="M726.2592,278.5564s2.6083,28.6583-5.4629,36.9975"/><path class="cls-3" d="M713.1739,276.32s-9.0755,33.0422-20.1127,41.9583"/><path class="cls-3" d="M703.1176,270.806s-24.1436,10.8042-29.5511,30.13"/><path class="cls-3" d="M699.1482,267.1634s-34.3795,14.1979-37.6361,28.2011"/><path class="cls-3" d="M687.636,264.8287s-42.372,14.5627-44.2943,31.6966"/><path class="cls-3" d="M431.2581,295.8855l89.8656,55.9135-68.3346-64.7033s11.224-18.4867,24.7589-5.612l44.5661,69.325-35.983-92.7634,27.07,3.3012,8.9132,91.4429,31.3613-100.7049"/><path d="M432.3217,289.7366s8.253-5.9421,22.118,1.6506c0,0,8.253-18.8168,22.118-6.6024,0,0,14.5252-20.1373,23.1083-22.118s13.865,0,13.865,0,11.8843-15.1855,39.9444-8.5831c0,0-14.5252-20.7975-41.2649-14.5252S443.5458,259.0355,432.3217,289.7366Z"/><path class="cls-4" d="M430.5061,297.4944s-17.2487-55.2225,35.3227-77.2478c53.9744-22.6131,88.3068,32.8468,88.3068,32.8468s-19.1469-12.2144-34.6625-7.2626-30.7011,23.4384-30.7011,23.4384-12.8746-10.8939-31.0312-1.9807S430.5061,297.4944,430.5061,297.4944Z"/><path class="cls-5" d="M451.4176,228.2254s20.3244,3.6129,33.8737-13.0769a62.86,62.86,0,0,0-18.326,4.633A94.783,94.783,0,0,0,451.4176,228.2254Z"/><path class="cls-3" d="M449.0737,230.0042s-11.0058,15.337-8.5969,51.5647"/><path class="cls-3" d="M456.4212,228.5543s-2.6083,28.6583,5.4629,36.9975"/><path class="cls-3" d="M469.5064,226.3176s9.0755,33.0422,20.1127,41.9583"/><path class="cls-3" d="M479.5628,220.804s24.1436,10.8042,29.5511,30.13"/><path class="cls-3" d="M483.5321,217.1613s34.3795,14.1979,37.6361,28.2011"/><path class="cls-3" d="M495.0443,214.8267s42.372,14.5627,44.2943,31.6966"/><path class="cls-3" d="M345.4222,346.8875,255.5566,402.801l68.3346-64.7033s-11.224-18.4867-24.7589-5.612l-44.5661,69.325,35.983-92.7634-27.07,3.3012-8.9132,91.4429L223.205,303.0864"/><path d="M344.3586,340.7387s-8.253-5.9421-22.118,1.6506c0,0-8.253-18.8168-22.118-6.6024,0,0-14.5252-20.1373-23.1083-22.118s-13.865,0-13.865,0-11.8843-15.1855-39.9444-8.5831c0,0,14.5252-20.7975,41.2649-14.5252S333.1346,310.0376,344.3586,340.7387Z"/><path class="cls-4" d="M346.1743,348.4965s17.2487-55.2225-35.3227-77.2478c-53.9744-22.6131-88.3068,32.8468-88.3068,32.8468s19.1469-12.2144,34.6625-7.2626,30.7011,23.4384,30.7011,23.4384,12.8746-10.8939,31.0312-1.9807S346.1743,348.4965,346.1743,348.4965Z"/><path class="cls-5" d="M325.2627,279.2275s-20.3244,3.6129-33.8737-13.0769a62.86,62.86,0,0,1,18.326,4.633A94.783,94.783,0,0,1,325.2627,279.2275Z"/><path class="cls-3" d="M327.6067,281.0063s11.0058,15.337,8.5969,51.5647"/><path class="cls-3" d="M320.2592,279.5564s2.6083,28.6583-5.4629,36.9975"/><path class="cls-3" d="M307.1739,277.32s-9.0755,33.0422-20.1127,41.9583"/><path class="cls-3" d="M297.1176,271.806s-24.1436,10.8042-29.5511,30.13"/><path class="cls-3" d="M293.1482,268.1634s-34.3795,14.1979-37.6361,28.2011"/><path class="cls-3" d="M281.636,265.8287s-42.372,14.5627-44.2943,31.6966"/><path class="cls-3" d="M25.2575,294.8855l89.8656,55.9135L46.7885,286.0956s11.224-18.4867,24.7589-5.612l44.5661,69.325-35.983-92.7634,27.07,3.3012,8.9132,91.4429,31.3613-100.7049"/><path d="M26.3211,288.7366s8.253-5.9421,22.118,1.6506c0,0,8.253-18.8168,22.118-6.6024,0,0,14.5252-20.1373,23.1083-22.118s13.865,0,13.865,0,11.8843-15.1855,39.9444-8.5831c0,0-14.5252-20.7975-41.2649-14.5252S37.5452,258.0355,26.3211,288.7366Z"/><path class="cls-4" d="M24.5055,296.4944S7.2568,241.2719,59.8282,219.2466c53.9744-22.6131,88.3068,32.8468,88.3068,32.8468s-19.1469-12.2144-34.6625-7.2626-30.7011,23.4384-30.7011,23.4384S69.8968,257.3753,51.74,266.2885,24.5055,296.4944,24.5055,296.4944Z"/><path class="cls-5" d="M45.417,227.2254s20.3244,3.6129,33.8737-13.0769a62.86,62.86,0,0,0-18.326,4.633A94.783,94.783,0,0,0,45.417,227.2254Z"/><path class="cls-3" d="M43.0731,229.0042s-11.0058,15.337-8.5969,51.5647"/><path class="cls-3" d="M50.4206,227.5543s-2.6083,28.6583,5.4629,36.9975"/><path class="cls-3" d="M63.5058,225.3176s9.0755,33.0422,20.1127,41.9583"/><path class="cls-3" d="M73.5622,219.804s24.1436,10.8042,29.5511,30.13"/><path class="cls-3" d="M77.5315,216.1613s34.3795,14.1979,37.6361,28.2011"/><path class="cls-3" d="M89.0437,213.8267s42.372,14.5627,44.2943,31.6966"/><path class="cls-3" d="M1041.2578,294.8851l89.8656,55.9135-68.3346-64.7033s11.224-18.4867,24.7589-5.612l44.5661,69.325-35.983-92.7634,27.07,3.3012,8.9132,91.4429,31.3613-100.7049"/><path d="M1042.3214,288.7362s8.253-5.9421,22.118,1.6506c0,0,8.253-18.8168,22.118-6.6024,0,0,14.5252-20.1373,23.1083-22.118s13.865,0,13.865,0,11.8843-15.1855,39.9444-8.5831c0,0-14.5252-20.7975-41.2649-14.5252S1053.5455,258.0352,1042.3214,288.7362Z"/><path class="cls-4" d="M1040.5058,296.494s-17.2487-55.2225,35.3227-77.2478c53.9744-22.6131,88.3068,32.8468,88.3068,32.8468s-19.1469-12.2144-34.6625-7.2626-30.7011,23.4384-30.7011,23.4384-12.8746-10.8939-31.0312-1.9807S1040.5058,296.494,1040.5058,296.494Z"/><path class="cls-5" d="M1061.4173,227.2251s20.3244,3.6129,33.8737-13.0769a62.86,62.86,0,0,0-18.326,4.633A94.783,94.783,0,0,0,1061.4173,227.2251Z"/><path class="cls-3" d="M1059.0734,229.0039s-11.0058,15.337-8.5969,51.5647"/><path class="cls-3" d="M1066.4209,227.5539s-2.6083,28.6583,5.4629,36.9975"/><path class="cls-3" d="M1079.5061,225.3173s9.0755,33.0422,20.1127,41.9583"/><path class="cls-3" d="M1089.5625,219.8036s24.1436,10.8042,29.5511,30.13"/><path class="cls-3" d="M1093.5318,216.161s34.3795,14.1979,37.6361,28.2011"/><path class="cls-3" d="M1105.044,213.8263s42.372,14.5627,44.2943,31.6966"/></g><g class="cls-2"><path class="cls-3" d="M836.2581,522.8855l89.8656,55.9135-68.3346-64.7033s11.224-18.4867,24.7589-5.612l44.5661,69.325-35.983-92.7634,27.07,3.3012,8.9132,91.4429,31.3613-100.7049"/><path d="M837.3217,516.7366s8.253-5.9421,22.118,1.6506c0,0,8.253-18.8168,22.118-6.6024,0,0,14.5252-20.1373,23.1083-22.118s13.865,0,13.865,0,11.8843-15.1855,39.9444-8.5831c0,0-14.5252-20.7975-41.2649-14.5252S848.5458,486.0355,837.3217,516.7366Z"/><path class="cls-4" d="M835.5061,524.4944s-17.2487-55.2225,35.3227-77.2478c53.9744-22.6131,88.3068,32.8468,88.3068,32.8468s-19.1469-12.2144-34.6625-7.2626-30.7011,23.4384-30.7011,23.4384-12.8746-10.8939-31.0312-1.9807S835.5061,524.4944,835.5061,524.4944Z"/><path class="cls-5" d="M856.4176,455.2254s20.3244,3.6129,33.8737-13.0769a62.86,62.86,0,0,0-18.326,4.633A94.783,94.783,0,0,0,856.4176,455.2254Z"/><path class="cls-3" d="M854.0737,457.0042s-11.0058,15.337-8.5969,51.5647"/><path class="cls-3" d="M861.4212,455.5543s-2.6083,28.6583,5.4629,36.9975"/><path class="cls-3" d="M874.5064,453.3176s9.0755,33.0422,20.1127,41.9583"/><path class="cls-3" d="M884.5628,447.804s24.1436,10.8042,29.5511,30.13"/><path class="cls-3" d="M888.5321,444.1613s34.3795,14.1979,37.6361,28.2011"/><path class="cls-3" d="M900.0443,441.8267s42.372,14.5627,44.2943,31.6966"/><path class="cls-3" d="M750.4222,572.8875,660.5566,628.801l68.3346-64.7033s-11.224-18.4867-24.7589-5.612l-44.5661,69.325,35.983-92.7634-27.07,3.3012-8.9132,91.4429L628.205,529.0864"/><path d="M749.3586,566.7387s-8.253-5.9421-22.118,1.6506c0,0-8.253-18.8168-22.118-6.6024,0,0-14.5252-20.1373-23.1083-22.118s-13.865,0-13.865,0-11.8843-15.1855-39.9444-8.5831c0,0,14.5252-20.7975,41.2649-14.5252S738.1346,536.0376,749.3586,566.7387Z"/><path class="cls-4" d="M751.1743,574.4965s17.2487-55.2225-35.3227-77.2478c-53.9744-22.6131-88.3068,32.8468-88.3068,32.8468s19.1469-12.2144,34.6625-7.2626,30.7011,23.4384,30.7011,23.4384,12.8746-10.8939,31.0312-1.9807S751.1743,574.4965,751.1743,574.4965Z"/><path class="cls-5" d="M730.2627,505.2275s-20.3244,3.6129-33.8737-13.0769a62.86,62.86,0,0,1,18.326,4.633A94.783,94.783,0,0,1,730.2627,505.2275Z"/><path class="cls-3" d="M732.6067,507.0063s11.0058,15.337,8.5969,51.5647"/><path class="cls-3" d="M725.2592,505.5564s2.6083,28.6583-5.4629,36.9975"/><path class="cls-3" d="M712.1739,503.32s-9.0755,33.0422-20.1127,41.9583"/><path class="cls-3" d="M702.1176,497.806s-24.1436,10.8042-29.5511,30.13"/><path class="cls-3" d="M698.1482,494.1634s-34.3795,14.1979-37.6361,28.2011"/><path class="cls-3" d="M686.636,491.8287s-42.372,14.5627-44.2943,31.6966"/><path class="cls-3" d="M430.2581,522.8855l89.8656,55.9135-68.3346-64.7033s11.224-18.4867,24.7589-5.612l44.5661,69.325-35.983-92.7634,27.07,3.3012,8.9132,91.4429,31.3613-100.7049"/><path d="M431.3217,516.7366s8.253-5.9421,22.118,1.6506c0,0,8.253-18.8168,22.118-6.6024,0,0,14.5252-20.1373,23.1083-22.118s13.865,0,13.865,0,11.8843-15.1855,39.9444-8.5831c0,0-14.5252-20.7975-41.2649-14.5252S442.5458,486.0355,431.3217,516.7366Z"/><path class="cls-4" d="M429.5061,524.4944s-17.2487-55.2225,35.3227-77.2478c53.9744-22.6131,88.3068,32.8468,88.3068,32.8468s-19.1469-12.2144-34.6625-7.2626-30.7011,23.4384-30.7011,23.4384-12.8746-10.8939-31.0312-1.9807S429.5061,524.4944,429.5061,524.4944Z"/><path class="cls-5" d="M450.4176,455.2254s20.3244,3.6129,33.8737-13.0769a62.86,62.86,0,0,0-18.326,4.633A94.783,94.783,0,0,0,450.4176,455.2254Z"/><path class="cls-3" d="M448.0737,457.0042s-11.0058,15.337-8.5969,51.5647"/><path class="cls-3" d="M455.4212,455.5543s-2.6083,28.6583,5.4629,36.9975"/><path class="cls-3" d="M468.5064,453.3176s9.0755,33.0422,20.1127,41.9583"/><path class="cls-3" d="M478.5628,447.804s24.1436,10.8042,29.5511,30.13"/><path class="cls-3" d="M482.5321,444.1613s34.3795,14.1979,37.6361,28.2011"/><path class="cls-3" d="M494.0443,441.8267s42.372,14.5627,44.2943,31.6966"/><path class="cls-3" d="M344.4222,573.8875,254.5566,629.801l68.3346-64.7033s-11.224-18.4867-24.7589-5.612l-44.5661,69.325,35.983-92.7634-27.07,3.3012-8.9132,91.4429L222.205,530.0864"/><path d="M343.3586,567.7387s-8.253-5.9421-22.118,1.6506c0,0-8.253-18.8168-22.118-6.6024,0,0-14.5252-20.1373-23.1083-22.118s-13.865,0-13.865,0-11.8843-15.1855-39.9444-8.5831c0,0,14.5252-20.7975,41.2649-14.5252S332.1346,537.0376,343.3586,567.7387Z"/><path class="cls-4" d="M345.1743,575.4965s17.2487-55.2225-35.3227-77.2478c-53.9744-22.6131-88.3068,32.8468-88.3068,32.8468s19.1469-12.2144,34.6625-7.2626,30.7011,23.4384,30.7011,23.4384,12.8746-10.8939,31.0312-1.9807S345.1743,575.4965,345.1743,575.4965Z"/><path class="cls-5" d="M324.2627,506.2275s-20.3244,3.6129-33.8737-13.0769a62.86,62.86,0,0,1,18.326,4.633A94.783,94.783,0,0,1,324.2627,506.2275Z"/><path class="cls-3" d="M326.6067,508.0063s11.0058,15.337,8.5969,51.5647"/><path class="cls-3" d="M319.2592,506.5564s2.6083,28.6583-5.4629,36.9975"/><path class="cls-3" d="M306.1739,504.32s-9.0755,33.0422-20.1127,41.9583"/><path class="cls-3" d="M296.1176,498.806s-24.1436,10.8042-29.5511,30.13"/><path class="cls-3" d="M292.1482,495.1634s-34.3795,14.1979-37.6361,28.2011"/><path class="cls-3" d="M280.636,492.8287s-42.372,14.5627-44.2943,31.6966"/><path class="cls-3" d="M24.2575,521.8855l89.8656,55.9135L45.7885,513.0956s11.224-18.4867,24.7589-5.612l44.5661,69.325-35.983-92.7634,27.07,3.3012,8.9132,91.4429,31.3613-100.7049"/><path d="M25.3211,515.7366s8.253-5.9421,22.118,1.6506c0,0,8.253-18.8168,22.118-6.6024,0,0,14.5252-20.1373,23.1083-22.118s13.865,0,13.865,0,11.8843-15.1855,39.9444-8.5831c0,0-14.5252-20.7975-41.2649-14.5252S36.5452,485.0355,25.3211,515.7366Z"/><path class="cls-4" d="M23.5055,523.4944S6.2568,468.2719,58.8282,446.2466c53.9744-22.6131,88.3068,32.8468,88.3068,32.8468s-19.1469-12.2144-34.6625-7.2626-30.7011,23.4384-30.7011,23.4384S68.8968,484.3753,50.74,493.2885,23.5055,523.4944,23.5055,523.4944Z"/><path class="cls-5" d="M44.417,454.2254s20.3244,3.6129,33.8737-13.0769a62.86,62.86,0,0,0-18.326,4.633A94.783,94.783,0,0,0,44.417,454.2254Z"/><path class="cls-3" d="M42.0731,456.0042s-11.0058,15.337-8.5969,51.5647"/><path class="cls-3" d="M49.4206,454.5543s-2.6083,28.6583,5.4629,36.9975"/><path class="cls-3" d="M62.5058,452.3176s9.0755,33.0422,20.1127,41.9583"/><path class="cls-3" d="M72.5622,446.804s24.1436,10.8042,29.5511,30.13"/><path class="cls-3" d="M76.5315,443.1613s34.3795,14.1979,37.6361,28.2011"/><path class="cls-3" d="M88.0437,440.8267s42.372,14.5627,44.2943,31.6966"/><path class="cls-3" d="M1040.2578,521.8851l89.8656,55.9135-68.3346-64.7033s11.224-18.4867,24.7589-5.612l44.5661,69.325-35.983-92.7634,27.07,3.3012,8.9132,91.4429,31.3613-100.7049"/><path d="M1041.3214,515.7362s8.253-5.9421,22.118,1.6506c0,0,8.253-18.8168,22.118-6.6024,0,0,14.5252-20.1373,23.1083-22.118s13.865,0,13.865,0,11.8843-15.1855,39.9444-8.5831c0,0-14.5252-20.7975-41.2649-14.5252S1052.5455,485.0352,1041.3214,515.7362Z"/><path class="cls-4" d="M1039.5058,523.494s-17.2487-55.2225,35.3227-77.2478c53.9744-22.6131,88.3068,32.8468,88.3068,32.8468s-19.1469-12.2144-34.6625-7.2626-30.7011,23.4384-30.7011,23.4384-12.8746-10.8939-31.0312-1.9807S1039.5058,523.494,1039.5058,523.494Z"/><path class="cls-5" d="M1060.4173,454.2251s20.3244,3.6129,33.8737-13.0769a62.86,62.86,0,0,0-18.326,4.633A94.783,94.783,0,0,0,1060.4173,454.2251Z"/><path class="cls-3" d="M1058.0734,456.0039s-11.0058,15.337-8.5969,51.5647"/><path class="cls-3" d="M1065.4209,454.5539s-2.6083,28.6583,5.4629,36.9975"/><path class="cls-3" d="M1078.5061,452.3173s9.0755,33.0422,20.1127,41.9583"/><path class="cls-3" d="M1088.5625,446.8036s24.1436,10.8042,29.5511,30.13"/><path class="cls-3" d="M1092.5318,443.161s34.3795,14.1979,37.6361,28.2011"/><path class="cls-3" d="M1104.044,440.8263s42.372,14.5627,44.2943,31.6966"/><path class="cls-3" d="M836.2581,748.8855l89.8656,55.9135-68.3346-64.7033s11.224-18.4867,24.7589-5.612l44.5661,69.325-35.983-92.7634,27.07,3.3012,8.9132,91.4429,31.3613-100.7049"/><path d="M837.3217,742.7366s8.253-5.9421,22.118,1.6506c0,0,8.253-18.8168,22.118-6.6024,0,0,14.5252-20.1373,23.1083-22.118s13.865,0,13.865,0,11.8843-15.1855,39.9444-8.5831c0,0-14.5252-20.7975-41.2649-14.5252S848.5458,712.0355,837.3217,742.7366Z"/><path class="cls-4" d="M835.5061,750.4944s-17.2487-55.2225,35.3227-77.2478c53.9744-22.6131,88.3068,32.8468,88.3068,32.8468s-19.1469-12.2144-34.6625-7.2626-30.7011,23.4384-30.7011,23.4384-12.8746-10.8939-31.0312-1.9807S835.5061,750.4944,835.5061,750.4944Z"/><path class="cls-5" d="M856.4176,681.2254s20.3244,3.6129,33.8737-13.0769a62.86,62.86,0,0,0-18.326,4.633A94.783,94.783,0,0,0,856.4176,681.2254Z"/><path class="cls-3" d="M854.0737,683.0042s-11.0058,15.337-8.5969,51.5647"/><path class="cls-3" d="M861.4212,681.5543s-2.6083,28.6583,5.4629,36.9975"/><path class="cls-3" d="M874.5064,679.3176s9.0755,33.0422,20.1127,41.9583"/><path class="cls-3" d="M884.5628,673.804s24.1436,10.8042,29.5511,30.13"/><path class="cls-3" d="M888.5321,670.1613s34.3795,14.1979,37.6361,28.2011"/><path class="cls-3" d="M900.0443,667.8267s42.372,14.5627,44.2943,31.6966"/><path class="cls-3" d="M750.4222,798.8875,660.5566,854.801l68.3346-64.7033s-11.224-18.4867-24.7589-5.612l-44.5661,69.325,35.983-92.7634-27.07,3.3012-8.9132,91.4429L628.205,755.0864"/><path d="M749.3586,792.7387s-8.253-5.9421-22.118,1.6506c0,0-8.253-18.8168-22.118-6.6024,0,0-14.5252-20.1373-23.1083-22.118s-13.865,0-13.865,0-11.8843-15.1855-39.9444-8.5831c0,0,14.5252-20.7975,41.2649-14.5252S738.1346,762.0376,749.3586,792.7387Z"/><path class="cls-4" d="M751.1743,800.4965s17.2487-55.2225-35.3227-77.2478c-53.9744-22.6131-88.3068,32.8468-88.3068,32.8468s19.1469-12.2144,34.6625-7.2626,30.7011,23.4384,30.7011,23.4384,12.8746-10.8939,31.0312-1.9807S751.1743,800.4965,751.1743,800.4965Z"/><path class="cls-5" d="M730.2627,731.2275s-20.3244,3.6129-33.8737-13.0769a62.86,62.86,0,0,1,18.326,4.633A94.783,94.783,0,0,1,730.2627,731.2275Z"/><path class="cls-3" d="M732.6067,733.0063s11.0058,15.337,8.5969,51.5647"/><path class="cls-3" d="M725.2592,731.5564s2.6083,28.6583-5.4629,36.9975"/><path class="cls-3" d="M712.1739,729.32s-9.0755,33.0422-20.1127,41.9583"/><path class="cls-3" d="M702.1176,723.806s-24.1436,10.8042-29.5511,30.13"/><path class="cls-3" d="M698.1482,720.1634s-34.3795,14.1979-37.6361,28.2011"/><path class="cls-3" d="M686.636,717.8287s-42.372,14.5627-44.2943,31.6966"/><path class="cls-3" d="M430.2581,748.8855l89.8656,55.9135-68.3346-64.7033s11.224-18.4867,24.7589-5.612l44.5661,69.325-35.983-92.7634,27.07,3.3012,8.9132,91.4429,31.3613-100.7049"/><path d="M431.3217,742.7366s8.253-5.9421,22.118,1.6506c0,0,8.253-18.8168,22.118-6.6024,0,0,14.5252-20.1373,23.1083-22.118s13.865,0,13.865,0,11.8843-15.1855,39.9444-8.5831c0,0-14.5252-20.7975-41.2649-14.5252S442.5458,712.0355,431.3217,742.7366Z"/><path class="cls-4" d="M429.5061,750.4944s-17.2487-55.2225,35.3227-77.2478c53.9744-22.6131,88.3068,32.8468,88.3068,32.8468s-19.1469-12.2144-34.6625-7.2626-30.7011,23.4384-30.7011,23.4384-12.8746-10.8939-31.0312-1.9807S429.5061,750.4944,429.5061,750.4944Z"/><path class="cls-5" d="M450.4176,681.2254s20.3244,3.6129,33.8737-13.0769a62.86,62.86,0,0,0-18.326,4.633A94.783,94.783,0,0,0,450.4176,681.2254Z"/><path class="cls-3" d="M448.0737,683.0042s-11.0058,15.337-8.5969,51.5647"/><path class="cls-3" d="M455.4212,681.5543s-2.6083,28.6583,5.4629,36.9975"/><path class="cls-3" d="M468.5064,679.3176s9.0755,33.0422,20.1127,41.9583"/><path class="cls-3" d="M478.5628,673.804s24.1436,10.8042,29.5511,30.13"/><path class="cls-3" d="M482.5321,670.1613s34.3795,14.1979,37.6361,28.2011"/><path class="cls-3" d="M494.0443,667.8267s42.372,14.5627,44.2943,31.6966"/><path class="cls-3" d="M344.4222,799.8875,254.5566,855.801l68.3346-64.7033s-11.224-18.4867-24.7589-5.612l-44.5661,69.325,35.983-92.7634-27.07,3.3012-8.9132,91.4429L222.205,756.0864"/><path d="M343.3586,793.7387s-8.253-5.9421-22.118,1.6506c0,0-8.253-18.8168-22.118-6.6024,0,0-14.5252-20.1373-23.1083-22.118s-13.865,0-13.865,0-11.8843-15.1855-39.9444-8.5831c0,0,14.5252-20.7975,41.2649-14.5252S332.1346,763.0376,343.3586,793.7387Z"/><path class="cls-4" d="M345.1743,801.4965s17.2487-55.2225-35.3227-77.2478c-53.9744-22.6131-88.3068,32.8468-88.3068,32.8468s19.1469-12.2144,34.6625-7.2626,30.7011,23.4384,30.7011,23.4384,12.8746-10.8939,31.0312-1.9807S345.1743,801.4965,345.1743,801.4965Z"/><path class="cls-5" d="M324.2627,732.2275s-20.3244,3.6129-33.8737-13.0769a62.86,62.86,0,0,1,18.326,4.633A94.783,94.783,0,0,1,324.2627,732.2275Z"/><path class="cls-3" d="M326.6067,734.0063s11.0058,15.337,8.5969,51.5647"/><path class="cls-3" d="M319.2592,732.5564s2.6083,28.6583-5.4629,36.9975"/><path class="cls-3" d="M306.1739,730.32s-9.0755,33.0422-20.1127,41.9583"/><path class="cls-3" d="M296.1176,724.806s-24.1436,10.8042-29.5511,30.13"/><path class="cls-3" d="M292.1482,721.1634s-34.3795,14.1979-37.6361,28.2011"/><path class="cls-3" d="M280.636,718.8287s-42.372,14.5627-44.2943,31.6966"/><path class="cls-3" d="M24.2575,747.8855l89.8656,55.9135L45.7885,739.0956s11.224-18.4867,24.7589-5.612l44.5661,69.325-35.983-92.7634,27.07,3.3012,8.9132,91.4429,31.3613-100.7049"/><path d="M25.3211,741.7366s8.253-5.9421,22.118,1.6506c0,0,8.253-18.8168,22.118-6.6024,0,0,14.5252-20.1373,23.1083-22.118s13.865,0,13.865,0,11.8843-15.1855,39.9444-8.5831c0,0-14.5252-20.7975-41.2649-14.5252S36.5452,711.0355,25.3211,741.7366Z"/><path class="cls-4" d="M23.5055,749.4944S6.2568,694.2719,58.8282,672.2466c53.9744-22.6131,88.3068,32.8468,88.3068,32.8468s-19.1469-12.2144-34.6625-7.2626-30.7011,23.4384-30.7011,23.4384S68.8968,710.3753,50.74,719.2885,23.5055,749.4944,23.5055,749.4944Z"/><path class="cls-5" d="M44.417,680.2254s20.3244,3.6129,33.8737-13.0769a62.86,62.86,0,0,0-18.326,4.633A94.783,94.783,0,0,0,44.417,680.2254Z"/><path class="cls-3" d="M42.0731,682.0042s-11.0058,15.337-8.5969,51.5647"/><path class="cls-3" d="M49.4206,680.5543s-2.6083,28.6583,5.4629,36.9975"/><path class="cls-3" d="M62.5058,678.3176s9.0755,33.0422,20.1127,41.9583"/><path class="cls-3" d="M72.5622,672.804s24.1436,10.8042,29.5511,30.13"/><path class="cls-3" d="M76.5315,669.1613s34.3795,14.1979,37.6361,28.2011"/><path class="cls-3" d="M88.0437,666.8267s42.372,14.5627,44.2943,31.6966"/><path class="cls-3" d="M1040.2578,747.8851l89.8656,55.9135-68.3346-64.7033s11.224-18.4867,24.7589-5.612l44.5661,69.325-35.983-92.7634,27.07,3.3012,8.9132,91.4429,31.3613-100.7049"/><path d="M1041.3214,741.7362s8.253-5.9421,22.118,1.6506c0,0,8.253-18.8168,22.118-6.6024,0,0,14.5252-20.1373,23.1083-22.118s13.865,0,13.865,0,11.8843-15.1855,39.9444-8.5831c0,0-14.5252-20.7975-41.2649-14.5252S1052.5455,711.0352,1041.3214,741.7362Z"/><path class="cls-4" d="M1039.5058,749.494s-17.2487-55.2225,35.3227-77.2478c53.9744-22.6131,88.3068,32.8468,88.3068,32.8468s-19.1469-12.2144-34.6625-7.2626-30.7011,23.4384-30.7011,23.4384-12.8746-10.8939-31.0312-1.9807S1039.5058,749.494,1039.5058,749.494Z"/><path class="cls-5" d="M1060.4173,680.2251s20.3244,3.6129,33.8737-13.0769a62.86,62.86,0,0,0-18.326,4.633A94.783,94.783,0,0,0,1060.4173,680.2251Z"/><path class="cls-3" d="M1058.0734,682.0039s-11.0058,15.337-8.5969,51.5647"/><path class="cls-3" d="M1065.4209,680.5539s-2.6083,28.6583,5.4629,36.9975"/><path class="cls-3" d="M1078.5061,678.3173s9.0755,33.0422,20.1127,41.9583"/><path class="cls-3" d="M1088.5625,672.8036s24.1436,10.8042,29.5511,30.13"/><path class="cls-3" d="M1092.5318,669.161s34.3795,14.1979,37.6361,28.2011"/><path class="cls-3" d="M1104.044,666.8263s42.372,14.5627,44.2943,31.6966"/></g><g class="cls-2"><path class="cls-3" d="M837.2581,1874.8855l89.8656,55.9135-68.3346-64.7033s11.224-18.4867,24.7589-5.612l44.5661,69.325-35.983-92.7634,27.07,3.3012,8.9132,91.4429,31.3613-100.7049"/><path d="M838.3217,1868.7366s8.253-5.9421,22.118,1.6506c0,0,8.253-18.8168,22.118-6.6024,0,0,14.5252-20.1373,23.1083-22.118s13.865,0,13.865,0,11.8843-15.1855,39.9444-8.5831c0,0-14.5252-20.7975-41.2649-14.5252S849.5458,1838.0355,838.3217,1868.7366Z"/><path class="cls-4" d="M836.5061,1876.4944s-17.2487-55.2225,35.3227-77.2478c53.9744-22.6131,88.3068,32.8468,88.3068,32.8468s-19.1469-12.2144-34.6625-7.2626-30.7011,23.4384-30.7011,23.4384-12.8746-10.8939-31.0312-1.9807S836.5061,1876.4944,836.5061,1876.4944Z"/><path class="cls-5" d="M857.4176,1807.2254s20.3244,3.6129,33.8737-13.0769a62.86,62.86,0,0,0-18.326,4.633A94.783,94.783,0,0,0,857.4176,1807.2254Z"/><path class="cls-3" d="M855.0737,1809.0042s-11.0058,15.337-8.5969,51.5647"/><path class="cls-3" d="M862.4212,1807.5543s-2.6083,28.6583,5.4629,36.9975"/><path class="cls-3" d="M875.5064,1805.3176s9.0755,33.0422,20.1127,41.9583"/><path class="cls-3" d="M885.5628,1799.804s24.1436,10.8042,29.5511,30.13"/><path class="cls-3" d="M889.5321,1796.1613s34.3795,14.1979,37.6361,28.2011"/><path class="cls-3" d="M901.0443,1793.8267s42.372,14.5627,44.2943,31.6966"/><path class="cls-3" d="M751.4222,1924.8875l-89.8656,55.9135,68.3346-64.7033s-11.224-18.4867-24.7589-5.612l-44.5661,69.325,35.983-92.7634-27.07,3.3012-8.9132,91.4429L629.205,1881.0864"/><path d="M750.3586,1918.7387s-8.253-5.9421-22.118,1.6506c0,0-8.253-18.8168-22.118-6.6024,0,0-14.5252-20.1373-23.1083-22.118s-13.865,0-13.865,0-11.8843-15.1855-39.9444-8.5831c0,0,14.5252-20.7975,41.2649-14.5252S739.1346,1888.0376,750.3586,1918.7387Z"/><path class="cls-4" d="M752.1743,1926.4965s17.2487-55.2225-35.3227-77.2478c-53.9744-22.6131-88.3068,32.8468-88.3068,32.8468s19.1469-12.2144,34.6625-7.2626,30.7011,23.4384,30.7011,23.4384,12.8746-10.8939,31.0312-1.9807S752.1743,1926.4965,752.1743,1926.4965Z"/><path class="cls-5" d="M731.2627,1857.2275s-20.3244,3.6129-33.8737-13.0769a62.86,62.86,0,0,1,18.326,4.633A94.783,94.783,0,0,1,731.2627,1857.2275Z"/><path class="cls-3" d="M733.6067,1859.0063s11.0058,15.337,8.5969,51.5647"/><path class="cls-3" d="M726.2592,1857.5564s2.6083,28.6583-5.4629,36.9975"/><path class="cls-3" d="M713.1739,1855.32s-9.0755,33.0422-20.1127,41.9583"/><path class="cls-3" d="M703.1176,1849.806s-24.1436,10.8042-29.5511,30.13"/><path class="cls-3" d="M699.1482,1846.1634s-34.3795,14.1979-37.6361,28.2011"/><path class="cls-3" d="M687.636,1843.8287s-42.372,14.5627-44.2943,31.6966"/><path class="cls-3" d="M431.2581,1874.8855l89.8656,55.9135-68.3346-64.7033s11.224-18.4867,24.7589-5.612l44.5661,69.325-35.983-92.7634,27.07,3.3012,8.9132,91.4429,31.3613-100.7049"/><path d="M432.3217,1868.7366s8.253-5.9421,22.118,1.6506c0,0,8.253-18.8168,22.118-6.6024,0,0,14.5252-20.1373,23.1083-22.118s13.865,0,13.865,0,11.8843-15.1855,39.9444-8.5831c0,0-14.5252-20.7975-41.2649-14.5252S443.5458,1838.0355,432.3217,1868.7366Z"/><path class="cls-4" d="M430.5061,1876.4944s-17.2487-55.2225,35.3227-77.2478c53.9744-22.6131,88.3068,32.8468,88.3068,32.8468s-19.1469-12.2144-34.6625-7.2626-30.7011,23.4384-30.7011,23.4384-12.8746-10.8939-31.0312-1.9807S430.5061,1876.4944,430.5061,1876.4944Z"/><path class="cls-5" d="M451.4176,1807.2254s20.3244,3.6129,33.8737-13.0769a62.86,62.86,0,0,0-18.326,4.633A94.783,94.783,0,0,0,451.4176,1807.2254Z"/><path class="cls-3" d="M449.0737,1809.0042s-11.0058,15.337-8.5969,51.5647"/><path class="cls-3" d="M456.4212,1807.5543s-2.6083,28.6583,5.4629,36.9975"/><path class="cls-3" d="M469.5064,1805.3176s9.0755,33.0422,20.1127,41.9583"/><path class="cls-3" d="M479.5628,1799.804s24.1436,10.8042,29.5511,30.13"/><path class="cls-3" d="M483.5321,1796.1613s34.3795,14.1979,37.6361,28.2011"/><path class="cls-3" d="M495.0443,1793.8267s42.372,14.5627,44.2943,31.6966"/><path class="cls-3" d="M345.4222,1925.8875l-89.8656,55.9135,68.3346-64.7033s-11.224-18.4867-24.7589-5.612l-44.5661,69.325,35.983-92.7634-27.07,3.3012-8.9132,91.4429L223.205,1882.0864"/><path d="M344.3586,1919.7387s-8.253-5.9421-22.118,1.6506c0,0-8.253-18.8168-22.118-6.6024,0,0-14.5252-20.1373-23.1083-22.118s-13.865,0-13.865,0-11.8843-15.1855-39.9444-8.5831c0,0,14.5252-20.7975,41.2649-14.5252S333.1346,1889.0376,344.3586,1919.7387Z"/><path class="cls-4" d="M346.1743,1927.4965s17.2487-55.2225-35.3227-77.2478c-53.9744-22.6131-88.3068,32.8468-88.3068,32.8468s19.1469-12.2144,34.6625-7.2626,30.7011,23.4384,30.7011,23.4384,12.8746-10.8939,31.0312-1.9807S346.1743,1927.4965,346.1743,1927.4965Z"/><path class="cls-5" d="M325.2627,1858.2275s-20.3244,3.6129-33.8737-13.0769a62.86,62.86,0,0,1,18.326,4.633A94.783,94.783,0,0,1,325.2627,1858.2275Z"/><path class="cls-3" d="M327.6067,1860.0063s11.0058,15.337,8.5969,51.5647"/><path class="cls-3" d="M320.2592,1858.5564s2.6083,28.6583-5.4629,36.9975"/><path class="cls-3" d="M307.1739,1856.32s-9.0755,33.0422-20.1127,41.9583"/><path class="cls-3" d="M297.1176,1850.806s-24.1436,10.8042-29.5511,30.13"/><path class="cls-3" d="M293.1482,1847.1634s-34.3795,14.1979-37.6361,28.2011"/><path class="cls-3" d="M281.636,1844.8287s-42.372,14.5627-44.2943,31.6966"/><path class="cls-3" d="M25.2575,1873.8855l89.8656,55.9135-68.3346-64.7033s11.224-18.4867,24.7589-5.612l44.5661,69.325-35.983-92.7634,27.07,3.3012,8.9132,91.4429,31.3613-100.7049"/><path d="M26.3211,1867.7366s8.253-5.9421,22.118,1.6506c0,0,8.253-18.8168,22.118-6.6024,0,0,14.5252-20.1373,23.1083-22.118s13.865,0,13.865,0,11.8843-15.1855,39.9444-8.5831c0,0-14.5252-20.7975-41.2649-14.5252S37.5452,1837.0355,26.3211,1867.7366Z"/><path class="cls-4" d="M24.5055,1875.4944s-17.2487-55.2225,35.3227-77.2478c53.9744-22.6131,88.3068,32.8468,88.3068,32.8468s-19.1469-12.2144-34.6625-7.2626-30.7011,23.4384-30.7011,23.4384-12.8746-10.8939-31.0312-1.9807S24.5055,1875.4944,24.5055,1875.4944Z"/><path class="cls-5" d="M45.417,1806.2254s20.3244,3.6129,33.8737-13.0769a62.86,62.86,0,0,0-18.326,4.633A94.783,94.783,0,0,0,45.417,1806.2254Z"/><path class="cls-3" d="M43.0731,1808.0042s-11.0058,15.337-8.5969,51.5647"/><path class="cls-3" d="M50.4206,1806.5543s-2.6083,28.6583,5.4629,36.9975"/><path class="cls-3" d="M63.5058,1804.3176s9.0755,33.0422,20.1127,41.9583"/><path class="cls-3" d="M73.5622,1798.804s24.1436,10.8042,29.5511,30.13"/><path class="cls-3" d="M77.5315,1795.1613s34.3795,14.1979,37.6361,28.2011"/><path class="cls-3" d="M89.0437,1792.8267s42.372,14.5627,44.2943,31.6966"/><path class="cls-3" d="M1041.2578,1873.8851l89.8656,55.9135-68.3346-64.7033s11.224-18.4867,24.7589-5.612l44.5661,69.325-35.983-92.7634,27.07,3.3012,8.9132,91.4429,31.3613-100.7049"/><path d="M1042.3214,1867.7362s8.253-5.9421,22.118,1.6506c0,0,8.253-18.8168,22.118-6.6024,0,0,14.5252-20.1373,23.1083-22.118s13.865,0,13.865,0,11.8843-15.1855,39.9444-8.5831c0,0-14.5252-20.7975-41.2649-14.5252S1053.5455,1837.0352,1042.3214,1867.7362Z"/><path class="cls-4" d="M1040.5058,1875.494s-17.2487-55.2225,35.3227-77.2478c53.9744-22.6131,88.3068,32.8468,88.3068,32.8468s-19.1469-12.2144-34.6625-7.2626-30.7011,23.4384-30.7011,23.4384-12.8746-10.8939-31.0312-1.9807S1040.5058,1875.494,1040.5058,1875.494Z"/><path class="cls-5" d="M1061.4173,1806.2251s20.3244,3.6129,33.8737-13.0769a62.86,62.86,0,0,0-18.326,4.633A94.7831,94.7831,0,0,0,1061.4173,1806.2251Z"/><path class="cls-3" d="M1059.0734,1808.0039s-11.0058,15.337-8.5969,51.5647"/><path class="cls-3" d="M1066.4209,1806.5539s-2.6083,28.6583,5.4629,36.9975"/><path class="cls-3" d="M1079.5061,1804.3173s9.0755,33.0422,20.1127,41.9583"/><path class="cls-3" d="M1089.5625,1798.8036s24.1436,10.8042,29.5511,30.13"/><path class="cls-3" d="M1093.5318,1795.161s34.3795,14.1979,37.6361,28.2011"/><path class="cls-3" d="M1105.044,1792.8263s42.372,14.5627,44.2943,31.6966"/></g><g class="cls-2"><path class="cls-3" d="M837.2581,2100.8855l89.8656,55.9135-68.3346-64.7033s11.224-18.4867,24.7589-5.612l44.5661,69.325-35.983-92.7634,27.07,3.3012,8.9132,91.4429,31.3613-100.7049"/><path d="M838.3217,2094.7366s8.253-5.9421,22.118,1.6506c0,0,8.253-18.8168,22.118-6.6024,0,0,14.5252-20.1373,23.1083-22.118s13.865,0,13.865,0,11.8843-15.1855,39.9444-8.5831c0,0-14.5252-20.7975-41.2649-14.5252S849.5458,2064.0355,838.3217,2094.7366Z"/><path class="cls-4" d="M836.5061,2102.4944s-17.2487-55.2225,35.3227-77.2478c53.9744-22.6131,88.3068,32.8468,88.3068,32.8468s-19.1469-12.2144-34.6625-7.2626-30.7011,23.4384-30.7011,23.4384-12.8746-10.8939-31.0312-1.9807S836.5061,2102.4944,836.5061,2102.4944Z"/><path class="cls-5" d="M857.4176,2033.2254s20.3244,3.6129,33.8737-13.0769a62.86,62.86,0,0,0-18.326,4.633A94.783,94.783,0,0,0,857.4176,2033.2254Z"/><path class="cls-3" d="M855.0737,2035.0042s-11.0058,15.337-8.5969,51.5647"/><path class="cls-3" d="M862.4212,2033.5543s-2.6083,28.6583,5.4629,36.9975"/><path class="cls-3" d="M875.5064,2031.3176s9.0755,33.0422,20.1127,41.9583"/><path class="cls-3" d="M885.5628,2025.804s24.1436,10.8042,29.5511,30.13"/><path class="cls-3" d="M889.5321,2022.1613s34.3795,14.1979,37.6361,28.2011"/><path class="cls-3" d="M901.0443,2019.8267s42.372,14.5627,44.2943,31.6966"/><path d="M750.3586,2144.7387s-8.253-5.9421-22.118,1.6506c0,0-8.253-18.8168-22.118-6.6024,0,0-14.5252-20.1373-23.1083-22.118s-13.865,0-13.865,0-11.8843-15.1855-39.9444-8.5831c0,0,14.5252-20.7975,41.2649-14.5252S739.1346,2114.0376,750.3586,2144.7387Z"/><path class="cls-4" d="M752.1743,2152.4965s17.2487-55.2225-35.3227-77.2478c-53.9744-22.6131-88.3068,32.8468-88.3068,32.8468s19.1469-12.2144,34.6625-7.2626,30.7011,23.4384,30.7011,23.4384,12.8746-10.8939,31.0312-1.9807S752.1743,2152.4965,752.1743,2152.4965Z"/><path class="cls-5" d="M731.2627,2083.2275s-20.3244,3.6129-33.8737-13.0769a62.86,62.86,0,0,1,18.326,4.633A94.783,94.783,0,0,1,731.2627,2083.2275Z"/><path class="cls-3" d="M733.6067,2085.0063s11.0058,15.337,8.5969,51.5647"/><path class="cls-3" d="M726.2592,2083.5564s2.6083,28.6583-5.4629,36.9975"/><path class="cls-3" d="M713.1739,2081.32s-9.0755,33.0422-20.1127,41.9583"/><path class="cls-3" d="M703.1176,2075.806s-24.1436,10.8042-29.5511,30.13"/><path class="cls-3" d="M699.1482,2072.1634s-34.3795,14.1979-37.6361,28.2011"/><path class="cls-3" d="M687.636,2069.8287s-42.372,14.5627-44.2943,31.6966"/><path class="cls-3" d="M431.2581,2100.8855l89.8656,55.9135-68.3346-64.7033s11.224-18.4867,24.7589-5.612l44.5661,69.325-35.983-92.7634,27.07,3.3012,8.9132,91.4429,31.3613-100.7049"/><path d="M432.3217,2094.7366s8.253-5.9421,22.118,1.6506c0,0,8.253-18.8168,22.118-6.6024,0,0,14.5252-20.1373,23.1083-22.118s13.865,0,13.865,0,11.8843-15.1855,39.9444-8.5831c0,0-14.5252-20.7975-41.2649-14.5252S443.5458,2064.0355,432.3217,2094.7366Z"/><path class="cls-4" d="M430.5061,2102.4944s-17.2487-55.2225,35.3227-77.2478c53.9744-22.6131,88.3068,32.8468,88.3068,32.8468s-19.1469-12.2144-34.6625-7.2626-30.7011,23.4384-30.7011,23.4384-12.8746-10.8939-31.0312-1.9807S430.5061,2102.4944,430.5061,2102.4944Z"/><path class="cls-5" d="M451.4176,2033.2254s20.3244,3.6129,33.8737-13.0769a62.86,62.86,0,0,0-18.326,4.633A94.783,94.783,0,0,0,451.4176,2033.2254Z"/><path class="cls-3" d="M449.0737,2035.0042s-11.0058,15.337-8.5969,51.5647"/><path class="cls-3" d="M456.4212,2033.5543s-2.6083,28.6583,5.4629,36.9975"/><path class="cls-3" d="M469.5064,2031.3176s9.0755,33.0422,20.1127,41.9583"/><path class="cls-3" d="M479.5628,2025.804s24.1436,10.8042,29.5511,30.13"/><path class="cls-3" d="M483.5321,2022.1613s34.3795,14.1979,37.6361,28.2011"/><path class="cls-3" d="M495.0443,2019.8267s42.372,14.5627,44.2943,31.6966"/><path d="M344.3586,2145.7387s-8.253-5.9421-22.118,1.6506c0,0-8.253-18.8168-22.118-6.6024,0,0-14.5252-20.1373-23.1083-22.118s-13.865,0-13.865,0-11.8843-15.1855-39.9444-8.5831c0,0,14.5252-20.7975,41.2649-14.5252S333.1346,2115.0376,344.3586,2145.7387Z"/><path class="cls-4" d="M346.1743,2153.4965s17.2487-55.2225-35.3227-77.2478c-53.9744-22.6131-88.3068,32.8468-88.3068,32.8468s19.1469-12.2144,34.6625-7.2626,30.7011,23.4384,30.7011,23.4384,12.8746-10.8939,31.0312-1.9807S346.1743,2153.4965,346.1743,2153.4965Z"/><path class="cls-5" d="M325.2627,2084.2275s-20.3244,3.6129-33.8737-13.0769a62.86,62.86,0,0,1,18.326,4.633A94.783,94.783,0,0,1,325.2627,2084.2275Z"/><path class="cls-3" d="M327.6067,2086.0063s11.0058,15.337,8.5969,51.5647"/><path class="cls-3" d="M320.2592,2084.5564s2.6083,28.6583-5.4629,36.9975"/><path class="cls-3" d="M307.1739,2082.32s-9.0755,33.0422-20.1127,41.9583"/><path class="cls-3" d="M297.1176,2076.806s-24.1436,10.8042-29.5511,30.13"/><path class="cls-3" d="M293.1482,2073.1634s-34.3795,14.1979-37.6361,28.2011"/><path class="cls-3" d="M281.636,2070.8287s-42.372,14.5627-44.2943,31.6966"/><path class="cls-3" d="M25.2575,2099.8855l89.8656,55.9135-68.3346-64.7033s11.224-18.4867,24.7589-5.612l44.5661,69.325-35.983-92.7634,27.07,3.3012,8.9132,91.4429,31.3613-100.7049"/><path d="M26.3211,2093.7366s8.253-5.9421,22.118,1.6506c0,0,8.253-18.8168,22.118-6.6024,0,0,14.5252-20.1373,23.1083-22.118s13.865,0,13.865,0,11.8843-15.1855,39.9444-8.5831c0,0-14.5252-20.7975-41.2649-14.5252S37.5452,2063.0355,26.3211,2093.7366Z"/><path class="cls-4" d="M24.5055,2101.4944s-17.2487-55.2225,35.3227-77.2478c53.9744-22.6131,88.3068,32.8468,88.3068,32.8468s-19.1469-12.2144-34.6625-7.2626-30.7011,23.4384-30.7011,23.4384-12.8746-10.8939-31.0312-1.9807S24.5055,2101.4944,24.5055,2101.4944Z"/><path class="cls-5" d="M45.417,2032.2254s20.3244,3.6129,33.8737-13.0769a62.86,62.86,0,0,0-18.326,4.633A94.783,94.783,0,0,0,45.417,2032.2254Z"/><path class="cls-3" d="M43.0731,2034.0042s-11.0058,15.337-8.5969,51.5647"/><path class="cls-3" d="M50.4206,2032.5543s-2.6083,28.6583,5.4629,36.9975"/><path class="cls-3" d="M63.5058,2030.3176s9.0755,33.0422,20.1127,41.9583"/><path class="cls-3" d="M73.5622,2024.804s24.1436,10.8042,29.5511,30.13"/><path class="cls-3" d="M77.5315,2021.1613s34.3795,14.1979,37.6361,28.2011"/><path class="cls-3" d="M89.0437,2018.8267s42.372,14.5627,44.2943,31.6966"/><path class="cls-3" d="M1041.2578,2099.8851l89.8656,55.9135-68.3346-64.7033s11.224-18.4867,24.7589-5.612l44.5661,69.325-35.983-92.7634,27.07,3.3012,8.9132,91.4429,31.3613-100.7049"/><path d="M1042.3214,2093.7362s8.253-5.9421,22.118,1.6506c0,0,8.253-18.8168,22.118-6.6024,0,0,14.5252-20.1373,23.1083-22.118s13.865,0,13.865,0,11.8843-15.1855,39.9444-8.5831c0,0-14.5252-20.7975-41.2649-14.5252S1053.5455,2063.0352,1042.3214,2093.7362Z"/><path class="cls-4" d="M1040.5058,2101.494s-17.2487-55.2225,35.3227-77.2478c53.9744-22.6131,88.3068,32.8468,88.3068,32.8468s-19.1469-12.2144-34.6625-7.2626-30.7011,23.4384-30.7011,23.4384-12.8746-10.8939-31.0312-1.9807S1040.5058,2101.494,1040.5058,2101.494Z"/><path class="cls-5" d="M1061.4173,2032.2251s20.3244,3.6129,33.8737-13.0769a62.86,62.86,0,0,0-18.326,4.633A94.7831,94.7831,0,0,0,1061.4173,2032.2251Z"/><path class="cls-3" d="M1059.0734,2034.0039s-11.0058,15.337-8.5969,51.5647"/><path class="cls-3" d="M1066.4209,2032.5539s-2.6083,28.6583,5.4629,36.9975"/><path class="cls-3" d="M1079.5061,2030.3173s9.0755,33.0422,20.1127,41.9583"/><path class="cls-3" d="M1089.5625,2024.8036s24.1436,10.8042,29.5511,30.13"/><path class="cls-3" d="M1093.5318,2021.161s34.3795,14.1979,37.6361,28.2011"/><path class="cls-3" d="M1105.044,2018.8263s42.372,14.5627,44.2943,31.6966"/></g><g class="cls-2"><path class="cls-3" d="M836.2581,972.8855l89.8656,55.9135-68.3346-64.7033s11.224-18.4867,24.7589-5.612l44.5661,69.325-35.983-92.7634,27.07,3.3012,8.9132,91.4429,31.3613-100.7049"/><path d="M837.3217,966.7366s8.253-5.9421,22.118,1.6506c0,0,8.253-18.8168,22.118-6.6024,0,0,14.5252-20.1373,23.1083-22.118s13.865,0,13.865,0,11.8843-15.1855,39.9444-8.5831c0,0-14.5252-20.7975-41.2649-14.5252S848.5458,936.0355,837.3217,966.7366Z"/><path class="cls-4" d="M835.5061,974.4944s-17.2487-55.2225,35.3227-77.2478c53.9744-22.6131,88.3068,32.8468,88.3068,32.8468s-19.1469-12.2144-34.6625-7.2626-30.7011,23.4384-30.7011,23.4384-12.8746-10.8939-31.0312-1.9807S835.5061,974.4944,835.5061,974.4944Z"/><path class="cls-5" d="M856.4176,905.2254s20.3244,3.6129,33.8737-13.0769a62.86,62.86,0,0,0-18.326,4.633A94.783,94.783,0,0,0,856.4176,905.2254Z"/><path class="cls-3" d="M854.0737,907.0042s-11.0058,15.337-8.5969,51.5647"/><path class="cls-3" d="M861.4212,905.5543s-2.6083,28.6583,5.4629,36.9975"/><path class="cls-3" d="M874.5064,903.3176s9.0755,33.0422,20.1127,41.9583"/><path class="cls-3" d="M884.5628,897.804s24.1436,10.8042,29.5511,30.13"/><path class="cls-3" d="M888.5321,894.1613s34.3795,14.1979,37.6361,28.2011"/><path class="cls-3" d="M900.0443,891.8267s42.372,14.5627,44.2943,31.6966"/><path class="cls-3" d="M750.4222,1022.8875l-89.8656,55.9135,68.3346-64.7033s-11.224-18.4867-24.7589-5.612l-44.5661,69.325,35.983-92.7634-27.07,3.3012-8.9132,91.4429L628.205,979.0864"/><path d="M749.3586,1016.7387s-8.253-5.9421-22.118,1.6506c0,0-8.253-18.8168-22.118-6.6024,0,0-14.5252-20.1373-23.1083-22.118s-13.865,0-13.865,0-11.8843-15.1855-39.9444-8.5831c0,0,14.5252-20.7975,41.2649-14.5252S738.1346,986.0376,749.3586,1016.7387Z"/><path class="cls-4" d="M751.1743,1024.4965s17.2487-55.2225-35.3227-77.2478c-53.9744-22.6131-88.3068,32.8468-88.3068,32.8468s19.1469-12.2144,34.6625-7.2626,30.7011,23.4384,30.7011,23.4384,12.8746-10.8939,31.0312-1.9807S751.1743,1024.4965,751.1743,1024.4965Z"/><path class="cls-5" d="M730.2627,955.2275s-20.3244,3.6129-33.8737-13.0769a62.86,62.86,0,0,1,18.326,4.633A94.783,94.783,0,0,1,730.2627,955.2275Z"/><path class="cls-3" d="M732.6067,957.0063s11.0058,15.337,8.5969,51.5647"/><path class="cls-3" d="M725.2592,955.5564s2.6083,28.6583-5.4629,36.9975"/><path class="cls-3" d="M712.1739,953.32s-9.0755,33.0422-20.1127,41.9583"/><path class="cls-3" d="M702.1176,947.806s-24.1436,10.8042-29.5511,30.13"/><path class="cls-3" d="M698.1482,944.1634s-34.3795,14.1979-37.6361,28.2011"/><path class="cls-3" d="M686.636,941.8287s-42.372,14.5627-44.2943,31.6966"/><path class="cls-3" d="M430.2581,972.8855l89.8656,55.9135-68.3346-64.7033s11.224-18.4867,24.7589-5.612l44.5661,69.325-35.983-92.7634,27.07,3.3012,8.9132,91.4429,31.3613-100.7049"/><path d="M431.3217,966.7366s8.253-5.9421,22.118,1.6506c0,0,8.253-18.8168,22.118-6.6024,0,0,14.5252-20.1373,23.1083-22.118s13.865,0,13.865,0,11.8843-15.1855,39.9444-8.5831c0,0-14.5252-20.7975-41.2649-14.5252S442.5458,936.0355,431.3217,966.7366Z"/><path class="cls-4" d="M429.5061,974.4944s-17.2487-55.2225,35.3227-77.2478c53.9744-22.6131,88.3068,32.8468,88.3068,32.8468s-19.1469-12.2144-34.6625-7.2626-30.7011,23.4384-30.7011,23.4384-12.8746-10.8939-31.0312-1.9807S429.5061,974.4944,429.5061,974.4944Z"/><path class="cls-5" d="M450.4176,905.2254s20.3244,3.6129,33.8737-13.0769a62.86,62.86,0,0,0-18.326,4.633A94.783,94.783,0,0,0,450.4176,905.2254Z"/><path class="cls-3" d="M448.0737,907.0042s-11.0058,15.337-8.5969,51.5647"/><path class="cls-3" d="M455.4212,905.5543s-2.6083,28.6583,5.4629,36.9975"/><path class="cls-3" d="M468.5064,903.3176s9.0755,33.0422,20.1127,41.9583"/><path class="cls-3" d="M478.5628,897.804s24.1436,10.8042,29.5511,30.13"/><path class="cls-3" d="M482.5321,894.1613s34.3795,14.1979,37.6361,28.2011"/><path class="cls-3" d="M494.0443,891.8267s42.372,14.5627,44.2943,31.6966"/><path class="cls-3" d="M344.4222,1023.8875l-89.8656,55.9135,68.3346-64.7033s-11.224-18.4867-24.7589-5.612l-44.5661,69.325,35.983-92.7634-27.07,3.3012-8.9132,91.4429L222.205,980.0864"/><path d="M343.3586,1017.7387s-8.253-5.9421-22.118,1.6506c0,0-8.253-18.8168-22.118-6.6024,0,0-14.5252-20.1373-23.1083-22.118s-13.865,0-13.865,0-11.8843-15.1855-39.9444-8.5831c0,0,14.5252-20.7975,41.2649-14.5252S332.1346,987.0376,343.3586,1017.7387Z"/><path class="cls-4" d="M345.1743,1025.4965s17.2487-55.2225-35.3227-77.2478c-53.9744-22.6131-88.3068,32.8468-88.3068,32.8468s19.1469-12.2144,34.6625-7.2626,30.7011,23.4384,30.7011,23.4384,12.8746-10.8939,31.0312-1.9807S345.1743,1025.4965,345.1743,1025.4965Z"/><path class="cls-5" d="M324.2627,956.2275s-20.3244,3.6129-33.8737-13.0769a62.86,62.86,0,0,1,18.326,4.633A94.783,94.783,0,0,1,324.2627,956.2275Z"/><path class="cls-3" d="M326.6067,958.0063s11.0058,15.337,8.5969,51.5647"/><path class="cls-3" d="M319.2592,956.5564s2.6083,28.6583-5.4629,36.9975"/><path class="cls-3" d="M306.1739,954.32s-9.0755,33.0422-20.1127,41.9583"/><path class="cls-3" d="M296.1176,948.806s-24.1436,10.8042-29.5511,30.13"/><path class="cls-3" d="M292.1482,945.1634s-34.3795,14.1979-37.6361,28.2011"/><path class="cls-3" d="M280.636,942.8287s-42.372,14.5627-44.2943,31.6966"/><path class="cls-3" d="M24.2575,971.8855l89.8656,55.9135L45.7885,963.0956s11.224-18.4867,24.7589-5.612l44.5661,69.325-35.983-92.7634,27.07,3.3012,8.9132,91.4429,31.3613-100.7049"/><path d="M25.3211,965.7366s8.253-5.9421,22.118,1.6506c0,0,8.253-18.8168,22.118-6.6024,0,0,14.5252-20.1373,23.1083-22.118s13.865,0,13.865,0,11.8843-15.1855,39.9444-8.5831c0,0-14.5252-20.7975-41.2649-14.5252S36.5452,935.0355,25.3211,965.7366Z"/><path class="cls-4" d="M23.5055,973.4944S6.2568,918.2719,58.8282,896.2466c53.9744-22.6131,88.3068,32.8468,88.3068,32.8468s-19.1469-12.2144-34.6625-7.2626-30.7011,23.4384-30.7011,23.4384S68.8968,934.3753,50.74,943.2885,23.5055,973.4944,23.5055,973.4944Z"/><path class="cls-5" d="M44.417,904.2254s20.3244,3.6129,33.8737-13.0769a62.86,62.86,0,0,0-18.326,4.633A94.783,94.783,0,0,0,44.417,904.2254Z"/><path class="cls-3" d="M42.0731,906.0042s-11.0058,15.337-8.5969,51.5647"/><path class="cls-3" d="M49.4206,904.5543s-2.6083,28.6583,5.4629,36.9975"/><path class="cls-3" d="M62.5058,902.3176s9.0755,33.0422,20.1127,41.9583"/><path class="cls-3" d="M72.5622,896.804s24.1436,10.8042,29.5511,30.13"/><path class="cls-3" d="M76.5315,893.1613s34.3795,14.1979,37.6361,28.2011"/><path class="cls-3" d="M88.0437,890.8267s42.372,14.5627,44.2943,31.6966"/><path class="cls-3" d="M1040.2578,971.8851l89.8656,55.9135-68.3346-64.7033s11.224-18.4867,24.7589-5.612l44.5661,69.325-35.983-92.7634,27.07,3.3012,8.9132,91.4429,31.3613-100.7049"/><path d="M1041.3214,965.7362s8.253-5.9421,22.118,1.6506c0,0,8.253-18.8168,22.118-6.6024,0,0,14.5252-20.1373,23.1083-22.118s13.865,0,13.865,0,11.8843-15.1855,39.9444-8.5831c0,0-14.5252-20.7975-41.2649-14.5252S1052.5455,935.0352,1041.3214,965.7362Z"/><path class="cls-4" d="M1039.5058,973.494s-17.2487-55.2225,35.3227-77.2478c53.9744-22.6131,88.3068,32.8468,88.3068,32.8468s-19.1469-12.2144-34.6625-7.2626-30.7011,23.4384-30.7011,23.4384-12.8746-10.8939-31.0312-1.9807S1039.5058,973.494,1039.5058,973.494Z"/><path class="cls-5" d="M1060.4173,904.2251s20.3244,3.6129,33.8737-13.0769a62.86,62.86,0,0,0-18.326,4.633A94.783,94.783,0,0,0,1060.4173,904.2251Z"/><path class="cls-3" d="M1058.0734,906.0039s-11.0058,15.337-8.5969,51.5647"/><path class="cls-3" d="M1065.4209,904.5539s-2.6083,28.6583,5.4629,36.9975"/><path class="cls-3" d="M1078.5061,902.3173s9.0755,33.0422,20.1127,41.9583"/><path class="cls-3" d="M1088.5625,896.8036s24.1436,10.8042,29.5511,30.13"/><path class="cls-3" d="M1092.5318,893.161s34.3795,14.1979,37.6361,28.2011"/><path class="cls-3" d="M1104.044,890.8263s42.372,14.5627,44.2943,31.6966"/></g><g class="cls-2"><path class="cls-3" d="M836.2581,1198.8855l89.8656,55.9135-68.3346-64.7033s11.224-18.4867,24.7589-5.612l44.5661,69.325-35.983-92.7634,27.07,3.3012,8.9132,91.4429,31.3613-100.7049"/><path d="M837.3217,1192.7366s8.253-5.9421,22.118,1.6506c0,0,8.253-18.8168,22.118-6.6024,0,0,14.5252-20.1373,23.1083-22.118s13.865,0,13.865,0,11.8843-15.1855,39.9444-8.5831c0,0-14.5252-20.7975-41.2649-14.5252S848.5458,1162.0355,837.3217,1192.7366Z"/><path class="cls-4" d="M835.5061,1200.4944s-17.2487-55.2225,35.3227-77.2478c53.9744-22.6131,88.3068,32.8468,88.3068,32.8468s-19.1469-12.2144-34.6625-7.2626-30.7011,23.4384-30.7011,23.4384-12.8746-10.8939-31.0312-1.9807S835.5061,1200.4944,835.5061,1200.4944Z"/><path class="cls-5" d="M856.4176,1131.2254s20.3244,3.6129,33.8737-13.0769a62.86,62.86,0,0,0-18.326,4.633A94.783,94.783,0,0,0,856.4176,1131.2254Z"/><path class="cls-3" d="M854.0737,1133.0042s-11.0058,15.337-8.5969,51.5647"/><path class="cls-3" d="M861.4212,1131.5543s-2.6083,28.6583,5.4629,36.9975"/><path class="cls-3" d="M874.5064,1129.3176s9.0755,33.0422,20.1127,41.9583"/><path class="cls-3" d="M884.5628,1123.804s24.1436,10.8042,29.5511,30.13"/><path class="cls-3" d="M888.5321,1120.1613s34.3795,14.1979,37.6361,28.2011"/><path class="cls-3" d="M900.0443,1117.8267s42.372,14.5627,44.2943,31.6966"/><path class="cls-3" d="M750.4222,1248.8875l-89.8656,55.9135,68.3346-64.7033s-11.224-18.4867-24.7589-5.612l-44.5661,69.325,35.983-92.7634-27.07,3.3012-8.9132,91.4429L628.205,1205.0864"/><path d="M749.3586,1242.7387s-8.253-5.9421-22.118,1.6506c0,0-8.253-18.8168-22.118-6.6024,0,0-14.5252-20.1373-23.1083-22.118s-13.865,0-13.865,0-11.8843-15.1855-39.9444-8.5831c0,0,14.5252-20.7975,41.2649-14.5252S738.1346,1212.0376,749.3586,1242.7387Z"/><path class="cls-4" d="M751.1743,1250.4965s17.2487-55.2225-35.3227-77.2478c-53.9744-22.6131-88.3068,32.8468-88.3068,32.8468s19.1469-12.2144,34.6625-7.2626,30.7011,23.4384,30.7011,23.4384,12.8746-10.8939,31.0312-1.9807S751.1743,1250.4965,751.1743,1250.4965Z"/><path class="cls-5" d="M730.2627,1181.2275s-20.3244,3.6129-33.8737-13.0769a62.86,62.86,0,0,1,18.326,4.633A94.783,94.783,0,0,1,730.2627,1181.2275Z"/><path class="cls-3" d="M732.6067,1183.0063s11.0058,15.337,8.5969,51.5647"/><path class="cls-3" d="M725.2592,1181.5564s2.6083,28.6583-5.4629,36.9975"/><path class="cls-3" d="M712.1739,1179.32s-9.0755,33.0422-20.1127,41.9583"/><path class="cls-3" d="M702.1176,1173.806s-24.1436,10.8042-29.5511,30.13"/><path class="cls-3" d="M698.1482,1170.1634s-34.3795,14.1979-37.6361,28.2011"/><path class="cls-3" d="M686.636,1167.8287s-42.372,14.5627-44.2943,31.6966"/><path class="cls-3" d="M430.2581,1198.8855l89.8656,55.9135-68.3346-64.7033s11.224-18.4867,24.7589-5.612l44.5661,69.325-35.983-92.7634,27.07,3.3012,8.9132,91.4429,31.3613-100.7049"/><path d="M431.3217,1192.7366s8.253-5.9421,22.118,1.6506c0,0,8.253-18.8168,22.118-6.6024,0,0,14.5252-20.1373,23.1083-22.118s13.865,0,13.865,0,11.8843-15.1855,39.9444-8.5831c0,0-14.5252-20.7975-41.2649-14.5252S442.5458,1162.0355,431.3217,1192.7366Z"/><path class="cls-4" d="M429.5061,1200.4944s-17.2487-55.2225,35.3227-77.2478c53.9744-22.6131,88.3068,32.8468,88.3068,32.8468s-19.1469-12.2144-34.6625-7.2626-30.7011,23.4384-30.7011,23.4384-12.8746-10.8939-31.0312-1.9807S429.5061,1200.4944,429.5061,1200.4944Z"/><path class="cls-5" d="M450.4176,1131.2254s20.3244,3.6129,33.8737-13.0769a62.86,62.86,0,0,0-18.326,4.633A94.783,94.783,0,0,0,450.4176,1131.2254Z"/><path class="cls-3" d="M448.0737,1133.0042s-11.0058,15.337-8.5969,51.5647"/><path class="cls-3" d="M455.4212,1131.5543s-2.6083,28.6583,5.4629,36.9975"/><path class="cls-3" d="M468.5064,1129.3176s9.0755,33.0422,20.1127,41.9583"/><path class="cls-3" d="M478.5628,1123.804s24.1436,10.8042,29.5511,30.13"/><path class="cls-3" d="M482.5321,1120.1613s34.3795,14.1979,37.6361,28.2011"/><path class="cls-3" d="M494.0443,1117.8267s42.372,14.5627,44.2943,31.6966"/><path class="cls-3" d="M344.4222,1249.8875l-89.8656,55.9135,68.3346-64.7033s-11.224-18.4867-24.7589-5.612l-44.5661,69.325,35.983-92.7634-27.07,3.3012-8.9132,91.4429L222.205,1206.0864"/><path d="M343.3586,1243.7387s-8.253-5.9421-22.118,1.6506c0,0-8.253-18.8168-22.118-6.6024,0,0-14.5252-20.1373-23.1083-22.118s-13.865,0-13.865,0-11.8843-15.1855-39.9444-8.5831c0,0,14.5252-20.7975,41.2649-14.5252S332.1346,1213.0376,343.3586,1243.7387Z"/><path class="cls-4" d="M345.1743,1251.4965s17.2487-55.2225-35.3227-77.2478c-53.9744-22.6131-88.3068,32.8468-88.3068,32.8468s19.1469-12.2144,34.6625-7.2626,30.7011,23.4384,30.7011,23.4384,12.8746-10.8939,31.0312-1.9807S345.1743,1251.4965,345.1743,1251.4965Z"/><path class="cls-5" d="M324.2627,1182.2275s-20.3244,3.6129-33.8737-13.0769a62.86,62.86,0,0,1,18.326,4.633A94.783,94.783,0,0,1,324.2627,1182.2275Z"/><path class="cls-3" d="M326.6067,1184.0063s11.0058,15.337,8.5969,51.5647"/><path class="cls-3" d="M319.2592,1182.5564s2.6083,28.6583-5.4629,36.9975"/><path class="cls-3" d="M306.1739,1180.32s-9.0755,33.0422-20.1127,41.9583"/><path class="cls-3" d="M296.1176,1174.806s-24.1436,10.8042-29.5511,30.13"/><path class="cls-3" d="M292.1482,1171.1634s-34.3795,14.1979-37.6361,28.2011"/><path class="cls-3" d="M280.636,1168.8287s-42.372,14.5627-44.2943,31.6966"/><path class="cls-3" d="M24.2575,1197.8855l89.8656,55.9135-68.3346-64.7033s11.224-18.4867,24.7589-5.612l44.5661,69.325-35.983-92.7634,27.07,3.3012,8.9132,91.4429,31.3613-100.7049"/><path d="M25.3211,1191.7366s8.253-5.9421,22.118,1.6506c0,0,8.253-18.8168,22.118-6.6024,0,0,14.5252-20.1373,23.1083-22.118s13.865,0,13.865,0,11.8843-15.1855,39.9444-8.5831c0,0-14.5252-20.7975-41.2649-14.5252S36.5452,1161.0355,25.3211,1191.7366Z"/><path class="cls-4" d="M23.5055,1199.4944s-17.2487-55.2225,35.3227-77.2478c53.9744-22.6131,88.3068,32.8468,88.3068,32.8468s-19.1469-12.2144-34.6625-7.2626-30.7011,23.4384-30.7011,23.4384-12.8746-10.8939-31.0312-1.9807S23.5055,1199.4944,23.5055,1199.4944Z"/><path class="cls-5" d="M44.417,1130.2254s20.3244,3.6129,33.8737-13.0769a62.86,62.86,0,0,0-18.326,4.633A94.783,94.783,0,0,0,44.417,1130.2254Z"/><path class="cls-3" d="M42.0731,1132.0042s-11.0058,15.337-8.5969,51.5647"/><path class="cls-3" d="M49.4206,1130.5543s-2.6083,28.6583,5.4629,36.9975"/><path class="cls-3" d="M62.5058,1128.3176s9.0755,33.0422,20.1127,41.9583"/><path class="cls-3" d="M72.5622,1122.804s24.1436,10.8042,29.5511,30.13"/><path class="cls-3" d="M76.5315,1119.1613s34.3795,14.1979,37.6361,28.2011"/><path class="cls-3" d="M88.0437,1116.8267s42.372,14.5627,44.2943,31.6966"/><path class="cls-3" d="M1040.2578,1197.8851l89.8656,55.9135-68.3346-64.7033s11.224-18.4867,24.7589-5.612l44.5661,69.325-35.983-92.7634,27.07,3.3012,8.9132,91.4429,31.3613-100.7049"/><path d="M1041.3214,1191.7362s8.253-5.9421,22.118,1.6506c0,0,8.253-18.8168,22.118-6.6024,0,0,14.5252-20.1373,23.1083-22.118s13.865,0,13.865,0,11.8843-15.1855,39.9444-8.5831c0,0-14.5252-20.7975-41.2649-14.5252S1052.5455,1161.0352,1041.3214,1191.7362Z"/><path class="cls-4" d="M1039.5058,1199.494s-17.2487-55.2225,35.3227-77.2478c53.9744-22.6131,88.3068,32.8468,88.3068,32.8468s-19.1469-12.2144-34.6625-7.2626-30.7011,23.4384-30.7011,23.4384-12.8746-10.8939-31.0312-1.9807S1039.5058,1199.494,1039.5058,1199.494Z"/><path class="cls-5" d="M1060.4173,1130.2251s20.3244,3.6129,33.8737-13.0769a62.86,62.86,0,0,0-18.326,4.633A94.7831,94.7831,0,0,0,1060.4173,1130.2251Z"/><path class="cls-3" d="M1058.0734,1132.0039s-11.0058,15.337-8.5969,51.5647"/><path class="cls-3" d="M1065.4209,1130.5539s-2.6083,28.6583,5.4629,36.9975"/><path class="cls-3" d="M1078.5061,1128.3173s9.0755,33.0422,20.1127,41.9583"/><path class="cls-3" d="M1088.5625,1122.8036s24.1436,10.8042,29.5511,30.13"/><path class="cls-3" d="M1092.5318,1119.161s34.3795,14.1979,37.6361,28.2011"/><path class="cls-3" d="M1104.044,1116.8263s42.372,14.5627,44.2943,31.6966"/></g><g class="cls-2"><path class="cls-3" d="M835.2581,1425.8855l89.8656,55.9135-68.3346-64.7033s11.224-18.4867,24.7589-5.612l44.5661,69.325-35.983-92.7634,27.07,3.3012,8.9132,91.4429,31.3613-100.7049"/><path d="M836.3217,1419.7366s8.253-5.9421,22.118,1.6506c0,0,8.253-18.8168,22.118-6.6024,0,0,14.5252-20.1373,23.1083-22.118s13.865,0,13.865,0,11.8843-15.1855,39.9444-8.5831c0,0-14.5252-20.7975-41.2649-14.5252S847.5458,1389.0355,836.3217,1419.7366Z"/><path class="cls-4" d="M834.5061,1427.4944s-17.2487-55.2225,35.3227-77.2478c53.9744-22.6131,88.3068,32.8468,88.3068,32.8468s-19.1469-12.2144-34.6625-7.2626-30.7011,23.4384-30.7011,23.4384-12.8746-10.8939-31.0312-1.9807S834.5061,1427.4944,834.5061,1427.4944Z"/><path class="cls-5" d="M855.4176,1358.2254s20.3244,3.6129,33.8737-13.0769a62.86,62.86,0,0,0-18.326,4.633A94.783,94.783,0,0,0,855.4176,1358.2254Z"/><path class="cls-3" d="M853.0737,1360.0042s-11.0058,15.337-8.5969,51.5647"/><path class="cls-3" d="M860.4212,1358.5543s-2.6083,28.6583,5.4629,36.9975"/><path class="cls-3" d="M873.5064,1356.3176s9.0755,33.0422,20.1127,41.9583"/><path class="cls-3" d="M883.5628,1350.804s24.1436,10.8042,29.5511,30.13"/><path class="cls-3" d="M887.5321,1347.1613s34.3795,14.1979,37.6361,28.2011"/><path class="cls-3" d="M899.0443,1344.8267s42.372,14.5627,44.2943,31.6966"/><path class="cls-3" d="M749.4222,1475.8875l-89.8656,55.9135,68.3346-64.7033s-11.224-18.4867-24.7589-5.612l-44.5661,69.325,35.983-92.7634-27.07,3.3012-8.9132,91.4429L627.205,1432.0864"/><path d="M748.3586,1469.7387s-8.253-5.9421-22.118,1.6506c0,0-8.253-18.8168-22.118-6.6024,0,0-14.5252-20.1373-23.1083-22.118s-13.865,0-13.865,0-11.8843-15.1855-39.9444-8.5831c0,0,14.5252-20.7975,41.2649-14.5252S737.1346,1439.0376,748.3586,1469.7387Z"/><path class="cls-4" d="M750.1743,1477.4965s17.2487-55.2225-35.3227-77.2478c-53.9744-22.6131-88.3068,32.8468-88.3068,32.8468s19.1469-12.2144,34.6625-7.2626,30.7011,23.4384,30.7011,23.4384,12.8746-10.8939,31.0312-1.9807S750.1743,1477.4965,750.1743,1477.4965Z"/><path class="cls-5" d="M729.2627,1408.2275s-20.3244,3.6129-33.8737-13.0769a62.86,62.86,0,0,1,18.326,4.633A94.783,94.783,0,0,1,729.2627,1408.2275Z"/><path class="cls-3" d="M731.6067,1410.0063s11.0058,15.337,8.5969,51.5647"/><path class="cls-3" d="M724.2592,1408.5564s2.6083,28.6583-5.4629,36.9975"/><path class="cls-3" d="M711.1739,1406.32s-9.0755,33.0422-20.1127,41.9583"/><path class="cls-3" d="M701.1176,1400.806s-24.1436,10.8042-29.5511,30.13"/><path class="cls-3" d="M697.1482,1397.1634s-34.3795,14.1979-37.6361,28.2011"/><path class="cls-3" d="M685.636,1394.8287s-42.372,14.5627-44.2943,31.6966"/><path class="cls-3" d="M429.2581,1425.8855l89.8656,55.9135-68.3346-64.7033s11.224-18.4867,24.7589-5.612l44.5661,69.325-35.983-92.7634,27.07,3.3012,8.9132,91.4429,31.3613-100.7049"/><path d="M430.3217,1419.7366s8.253-5.9421,22.118,1.6506c0,0,8.253-18.8168,22.118-6.6024,0,0,14.5252-20.1373,23.1083-22.118s13.865,0,13.865,0,11.8843-15.1855,39.9444-8.5831c0,0-14.5252-20.7975-41.2649-14.5252S441.5458,1389.0355,430.3217,1419.7366Z"/><path class="cls-4" d="M428.5061,1427.4944s-17.2487-55.2225,35.3227-77.2478c53.9744-22.6131,88.3068,32.8468,88.3068,32.8468s-19.1469-12.2144-34.6625-7.2626-30.7011,23.4384-30.7011,23.4384-12.8746-10.8939-31.0312-1.9807S428.5061,1427.4944,428.5061,1427.4944Z"/><path class="cls-5" d="M449.4176,1358.2254s20.3244,3.6129,33.8737-13.0769a62.86,62.86,0,0,0-18.326,4.633A94.783,94.783,0,0,0,449.4176,1358.2254Z"/><path class="cls-3" d="M447.0737,1360.0042s-11.0058,15.337-8.5969,51.5647"/><path class="cls-3" d="M454.4212,1358.5543s-2.6083,28.6583,5.4629,36.9975"/><path class="cls-3" d="M467.5064,1356.3176s9.0755,33.0422,20.1127,41.9583"/><path class="cls-3" d="M477.5628,1350.804s24.1436,10.8042,29.5511,30.13"/><path class="cls-3" d="M481.5321,1347.1613s34.3795,14.1979,37.6361,28.2011"/><path class="cls-3" d="M493.0443,1344.8267s42.372,14.5627,44.2943,31.6966"/><path class="cls-3" d="M343.4222,1476.8875l-89.8656,55.9135,68.3346-64.7033s-11.224-18.4867-24.7589-5.612l-44.5661,69.325,35.983-92.7634-27.07,3.3012-8.9132,91.4429L221.205,1433.0864"/><path d="M342.3586,1470.7387s-8.253-5.9421-22.118,1.6506c0,0-8.253-18.8168-22.118-6.6024,0,0-14.5252-20.1373-23.1083-22.118s-13.865,0-13.865,0-11.8843-15.1855-39.9444-8.5831c0,0,14.5252-20.7975,41.2649-14.5252S331.1346,1440.0376,342.3586,1470.7387Z"/><path class="cls-4" d="M344.1743,1478.4965s17.2487-55.2225-35.3227-77.2478c-53.9744-22.6131-88.3068,32.8468-88.3068,32.8468s19.1469-12.2144,34.6625-7.2626,30.7011,23.4384,30.7011,23.4384,12.8746-10.8939,31.0312-1.9807S344.1743,1478.4965,344.1743,1478.4965Z"/><path class="cls-5" d="M323.2627,1409.2275s-20.3244,3.6129-33.8737-13.0769a62.86,62.86,0,0,1,18.326,4.633A94.783,94.783,0,0,1,323.2627,1409.2275Z"/><path class="cls-3" d="M325.6067,1411.0063s11.0058,15.337,8.5969,51.5647"/><path class="cls-3" d="M318.2592,1409.5564s2.6083,28.6583-5.4629,36.9975"/><path class="cls-3" d="M305.1739,1407.32s-9.0755,33.0422-20.1127,41.9583"/><path class="cls-3" d="M295.1176,1401.806s-24.1436,10.8042-29.5511,30.13"/><path class="cls-3" d="M291.1482,1398.1634s-34.3795,14.1979-37.6361,28.2011"/><path class="cls-3" d="M279.636,1395.8287s-42.372,14.5627-44.2943,31.6966"/><path class="cls-3" d="M23.2575,1424.8855l89.8656,55.9135-68.3346-64.7033s11.224-18.4867,24.7589-5.612l44.5661,69.325-35.983-92.7634,27.07,3.3012,8.9132,91.4429,31.3613-100.7049"/><path d="M24.3211,1418.7366s8.253-5.9421,22.118,1.6506c0,0,8.253-18.8168,22.118-6.6024,0,0,14.5252-20.1373,23.1083-22.118s13.865,0,13.865,0,11.8843-15.1855,39.9444-8.5831c0,0-14.5252-20.7975-41.2649-14.5252S35.5452,1388.0355,24.3211,1418.7366Z"/><path class="cls-4" d="M22.5055,1426.4944s-17.2487-55.2225,35.3227-77.2478c53.9744-22.6131,88.3068,32.8468,88.3068,32.8468s-19.1469-12.2144-34.6625-7.2626-30.7011,23.4384-30.7011,23.4384-12.8746-10.8939-31.0312-1.9807S22.5055,1426.4944,22.5055,1426.4944Z"/><path class="cls-5" d="M43.417,1357.2254s20.3244,3.6129,33.8737-13.0769a62.86,62.86,0,0,0-18.326,4.633A94.783,94.783,0,0,0,43.417,1357.2254Z"/><path class="cls-3" d="M41.0731,1359.0042s-11.0058,15.337-8.5969,51.5647"/><path class="cls-3" d="M48.4206,1357.5543s-2.6083,28.6583,5.4629,36.9975"/><path class="cls-3" d="M61.5058,1355.3176s9.0755,33.0422,20.1127,41.9583"/><path class="cls-3" d="M71.5622,1349.804s24.1436,10.8042,29.5511,30.13"/><path class="cls-3" d="M75.5315,1346.1613s34.3795,14.1979,37.6361,28.2011"/><path class="cls-3" d="M87.0437,1343.8267s42.372,14.5627,44.2943,31.6966"/><path class="cls-3" d="M1039.2578,1424.8851l89.8656,55.9135-68.3346-64.7033s11.224-18.4867,24.7589-5.612l44.5661,69.325-35.983-92.7634,27.07,3.3012,8.9132,91.4429,31.3613-100.7049"/><path d="M1040.3214,1418.7362s8.253-5.9421,22.118,1.6506c0,0,8.253-18.8168,22.118-6.6024,0,0,14.5252-20.1373,23.1083-22.118s13.865,0,13.865,0,11.8843-15.1855,39.9444-8.5831c0,0-14.5252-20.7975-41.2649-14.5252S1051.5455,1388.0352,1040.3214,1418.7362Z"/><path class="cls-4" d="M1038.5058,1426.494s-17.2487-55.2225,35.3227-77.2478c53.9744-22.6131,88.3068,32.8468,88.3068,32.8468s-19.1469-12.2144-34.6625-7.2626-30.7011,23.4384-30.7011,23.4384-12.8746-10.8939-31.0312-1.9807S1038.5058,1426.494,1038.5058,1426.494Z"/><path class="cls-5" d="M1059.4173,1357.2251s20.3244,3.6129,33.8737-13.0769a62.86,62.86,0,0,0-18.326,4.633A94.7831,94.7831,0,0,0,1059.4173,1357.2251Z"/><path class="cls-3" d="M1057.0734,1359.0039s-11.0058,15.337-8.5969,51.5647"/><path class="cls-3" d="M1064.4209,1357.5539s-2.6083,28.6583,5.4629,36.9975"/><path class="cls-3" d="M1077.5061,1355.3173s9.0755,33.0422,20.1127,41.9583"/><path class="cls-3" d="M1087.5625,1349.8036s24.1436,10.8042,29.5511,30.13"/><path class="cls-3" d="M1091.5318,1346.161s34.3795,14.1979,37.6361,28.2011"/><path class="cls-3" d="M1103.044,1343.8263s42.372,14.5627,44.2943,31.6966"/><path class="cls-3" d="M835.2581,1651.8855l89.8656,55.9135-68.3346-64.7033s11.224-18.4867,24.7589-5.612l44.5661,69.325-35.983-92.7634,27.07,3.3012,8.9132,91.4429,31.3613-100.7049"/><path d="M836.3217,1645.7366s8.253-5.9421,22.118,1.6506c0,0,8.253-18.8168,22.118-6.6024,0,0,14.5252-20.1373,23.1083-22.118s13.865,0,13.865,0,11.8843-15.1855,39.9444-8.5831c0,0-14.5252-20.7975-41.2649-14.5252S847.5458,1615.0355,836.3217,1645.7366Z"/><path class="cls-4" d="M834.5061,1653.4944s-17.2487-55.2225,35.3227-77.2478c53.9744-22.6131,88.3068,32.8468,88.3068,32.8468s-19.1469-12.2144-34.6625-7.2626-30.7011,23.4384-30.7011,23.4384-12.8746-10.8939-31.0312-1.9807S834.5061,1653.4944,834.5061,1653.4944Z"/><path class="cls-5" d="M855.4176,1584.2254s20.3244,3.6129,33.8737-13.0769a62.86,62.86,0,0,0-18.326,4.633A94.783,94.783,0,0,0,855.4176,1584.2254Z"/><path class="cls-3" d="M853.0737,1586.0042s-11.0058,15.337-8.5969,51.5647"/><path class="cls-3" d="M860.4212,1584.5543s-2.6083,28.6583,5.4629,36.9975"/><path class="cls-3" d="M873.5064,1582.3176s9.0755,33.0422,20.1127,41.9583"/><path class="cls-3" d="M883.5628,1576.804s24.1436,10.8042,29.5511,30.13"/><path class="cls-3" d="M887.5321,1573.1613s34.3795,14.1979,37.6361,28.2011"/><path class="cls-3" d="M899.0443,1570.8267s42.372,14.5627,44.2943,31.6966"/><path class="cls-3" d="M749.4222,1701.8875l-89.8656,55.9135,68.3346-64.7033s-11.224-18.4867-24.7589-5.612l-44.5661,69.325,35.983-92.7634-27.07,3.3012-8.9132,91.4429L627.205,1658.0864"/><path d="M748.3586,1695.7387s-8.253-5.9421-22.118,1.6506c0,0-8.253-18.8168-22.118-6.6024,0,0-14.5252-20.1373-23.1083-22.118s-13.865,0-13.865,0-11.8843-15.1855-39.9444-8.5831c0,0,14.5252-20.7975,41.2649-14.5252S737.1346,1665.0376,748.3586,1695.7387Z"/><path class="cls-4" d="M750.1743,1703.4965s17.2487-55.2225-35.3227-77.2478c-53.9744-22.6131-88.3068,32.8468-88.3068,32.8468s19.1469-12.2144,34.6625-7.2626,30.7011,23.4384,30.7011,23.4384,12.8746-10.8939,31.0312-1.9807S750.1743,1703.4965,750.1743,1703.4965Z"/><path class="cls-5" d="M729.2627,1634.2275s-20.3244,3.6129-33.8737-13.0769a62.86,62.86,0,0,1,18.326,4.633A94.783,94.783,0,0,1,729.2627,1634.2275Z"/><path class="cls-3" d="M731.6067,1636.0063s11.0058,15.337,8.5969,51.5647"/><path class="cls-3" d="M724.2592,1634.5564s2.6083,28.6583-5.4629,36.9975"/><path class="cls-3" d="M711.1739,1632.32s-9.0755,33.0422-20.1127,41.9583"/><path class="cls-3" d="M701.1176,1626.806s-24.1436,10.8042-29.5511,30.13"/><path class="cls-3" d="M697.1482,1623.1634s-34.3795,14.1979-37.6361,28.2011"/><path class="cls-3" d="M685.636,1620.8287s-42.372,14.5627-44.2943,31.6966"/><path class="cls-3" d="M429.2581,1651.8855l89.8656,55.9135-68.3346-64.7033s11.224-18.4867,24.7589-5.612l44.5661,69.325-35.983-92.7634,27.07,3.3012,8.9132,91.4429,31.3613-100.7049"/><path d="M430.3217,1645.7366s8.253-5.9421,22.118,1.6506c0,0,8.253-18.8168,22.118-6.6024,0,0,14.5252-20.1373,23.1083-22.118s13.865,0,13.865,0,11.8843-15.1855,39.9444-8.5831c0,0-14.5252-20.7975-41.2649-14.5252S441.5458,1615.0355,430.3217,1645.7366Z"/><path class="cls-4" d="M428.5061,1653.4944s-17.2487-55.2225,35.3227-77.2478c53.9744-22.6131,88.3068,32.8468,88.3068,32.8468s-19.1469-12.2144-34.6625-7.2626-30.7011,23.4384-30.7011,23.4384-12.8746-10.8939-31.0312-1.9807S428.5061,1653.4944,428.5061,1653.4944Z"/><path class="cls-5" d="M449.4176,1584.2254s20.3244,3.6129,33.8737-13.0769a62.86,62.86,0,0,0-18.326,4.633A94.783,94.783,0,0,0,449.4176,1584.2254Z"/><path class="cls-3" d="M447.0737,1586.0042s-11.0058,15.337-8.5969,51.5647"/><path class="cls-3" d="M454.4212,1584.5543s-2.6083,28.6583,5.4629,36.9975"/><path class="cls-3" d="M467.5064,1582.3176s9.0755,33.0422,20.1127,41.9583"/><path class="cls-3" d="M477.5628,1576.804s24.1436,10.8042,29.5511,30.13"/><path class="cls-3" d="M481.5321,1573.1613s34.3795,14.1979,37.6361,28.2011"/><path class="cls-3" d="M493.0443,1570.8267s42.372,14.5627,44.2943,31.6966"/><path class="cls-3" d="M343.4222,1702.8875l-89.8656,55.9135,68.3346-64.7033s-11.224-18.4867-24.7589-5.612l-44.5661,69.325,35.983-92.7634-27.07,3.3012-8.9132,91.4429L221.205,1659.0864"/><path d="M342.3586,1696.7387s-8.253-5.9421-22.118,1.6506c0,0-8.253-18.8168-22.118-6.6024,0,0-14.5252-20.1373-23.1083-22.118s-13.865,0-13.865,0-11.8843-15.1855-39.9444-8.5831c0,0,14.5252-20.7975,41.2649-14.5252S331.1346,1666.0376,342.3586,1696.7387Z"/><path class="cls-4" d="M344.1743,1704.4965s17.2487-55.2225-35.3227-77.2478c-53.9744-22.6131-88.3068,32.8468-88.3068,32.8468s19.1469-12.2144,34.6625-7.2626,30.7011,23.4384,30.7011,23.4384,12.8746-10.8939,31.0312-1.9807S344.1743,1704.4965,344.1743,1704.4965Z"/><path class="cls-5" d="M323.2627,1635.2275s-20.3244,3.6129-33.8737-13.0769a62.86,62.86,0,0,1,18.326,4.633A94.783,94.783,0,0,1,323.2627,1635.2275Z"/><path class="cls-3" d="M325.6067,1637.0063s11.0058,15.337,8.5969,51.5647"/><path class="cls-3" d="M318.2592,1635.5564s2.6083,28.6583-5.4629,36.9975"/><path class="cls-3" d="M305.1739,1633.32s-9.0755,33.0422-20.1127,41.9583"/><path class="cls-3" d="M295.1176,1627.806s-24.1436,10.8042-29.5511,30.13"/><path class="cls-3" d="M291.1482,1624.1634s-34.3795,14.1979-37.6361,28.2011"/><path class="cls-3" d="M279.636,1621.8287s-42.372,14.5627-44.2943,31.6966"/><path class="cls-3" d="M23.2575,1650.8855l89.8656,55.9135-68.3346-64.7033s11.224-18.4867,24.7589-5.612l44.5661,69.325-35.983-92.7634,27.07,3.3012,8.9132,91.4429,31.3613-100.7049"/><path d="M24.3211,1644.7366s8.253-5.9421,22.118,1.6506c0,0,8.253-18.8168,22.118-6.6024,0,0,14.5252-20.1373,23.1083-22.118s13.865,0,13.865,0,11.8843-15.1855,39.9444-8.5831c0,0-14.5252-20.7975-41.2649-14.5252S35.5452,1614.0355,24.3211,1644.7366Z"/><path class="cls-4" d="M22.5055,1652.4944s-17.2487-55.2225,35.3227-77.2478c53.9744-22.6131,88.3068,32.8468,88.3068,32.8468s-19.1469-12.2144-34.6625-7.2626-30.7011,23.4384-30.7011,23.4384-12.8746-10.8939-31.0312-1.9807S22.5055,1652.4944,22.5055,1652.4944Z"/><path class="cls-5" d="M43.417,1583.2254s20.3244,3.6129,33.8737-13.0769a62.86,62.86,0,0,0-18.326,4.633A94.783,94.783,0,0,0,43.417,1583.2254Z"/><path class="cls-3" d="M41.0731,1585.0042s-11.0058,15.337-8.5969,51.5647"/><path class="cls-3" d="M48.4206,1583.5543s-2.6083,28.6583,5.4629,36.9975"/><path class="cls-3" d="M61.5058,1581.3176s9.0755,33.0422,20.1127,41.9583"/><path class="cls-3" d="M71.5622,1575.804s24.1436,10.8042,29.5511,30.13"/><path class="cls-3" d="M75.5315,1572.1613s34.3795,14.1979,37.6361,28.2011"/><path class="cls-3" d="M87.0437,1569.8267s42.372,14.5627,44.2943,31.6966"/><path class="cls-3" d="M1039.2578,1650.8851l89.8656,55.9135-68.3346-64.7033s11.224-18.4867,24.7589-5.612l44.5661,69.325-35.983-92.7634,27.07,3.3012,8.9132,91.4429,31.3613-100.7049"/><path d="M1040.3214,1644.7362s8.253-5.9421,22.118,1.6506c0,0,8.253-18.8168,22.118-6.6024,0,0,14.5252-20.1373,23.1083-22.118s13.865,0,13.865,0,11.8843-15.1855,39.9444-8.5831c0,0-14.5252-20.7975-41.2649-14.5252S1051.5455,1614.0352,1040.3214,1644.7362Z"/><path class="cls-4" d="M1038.5058,1652.494s-17.2487-55.2225,35.3227-77.2478c53.9744-22.6131,88.3068,32.8468,88.3068,32.8468s-19.1469-12.2144-34.6625-7.2626-30.7011,23.4384-30.7011,23.4384-12.8746-10.8939-31.0312-1.9807S1038.5058,1652.494,1038.5058,1652.494Z"/><path class="cls-5" d="M1059.4173,1583.2251s20.3244,3.6129,33.8737-13.0769a62.86,62.86,0,0,0-18.326,4.633A94.7831,94.7831,0,0,0,1059.4173,1583.2251Z"/><path class="cls-3" d="M1057.0734,1585.0039s-11.0058,15.337-8.5969,51.5647"/><path class="cls-3" d="M1064.4209,1583.5539s-2.6083,28.6583,5.4629,36.9975"/><path class="cls-3" d="M1077.5061,1581.3173s9.0755,33.0422,20.1127,41.9583"/><path class="cls-3" d="M1087.5625,1575.8036s24.1436,10.8042,29.5511,30.13"/><path class="cls-3" d="M1091.5318,1572.161s34.3795,14.1979,37.6361,28.2011"/><path class="cls-3" d="M1103.044,1569.8263s42.372,14.5627,44.2943,31.6966"/></g></svg>